<?xml version="1.0" encoding="UTF-8" standalone="no"?>
<!-- Created with Inkscape (http://www.inkscape.org/) -->

<svg
   xmlns:dc="http://purl.org/dc/elements/1.1/"
   xmlns:cc="http://creativecommons.org/ns#"
   xmlns:rdf="http://www.w3.org/1999/02/22-rdf-syntax-ns#"
   xmlns:svg="http://www.w3.org/2000/svg"
   xmlns="http://www.w3.org/2000/svg"
   xmlns:sodipodi="http://sodipodi.sourceforge.net/DTD/sodipodi-0.dtd"
   xmlns:inkscape="http://www.inkscape.org/namespaces/inkscape"
   sodipodi:docname="Chinese black dragon.svg"
   inkscape:version="0.48.1 "
   id="svg2"
   height="510"
   width="500"
   version="1.0">
  <sodipodi:namedview
     pagecolor="#ffffff"
     bordercolor="#666666"
     borderopacity="1"
     objecttolerance="10"
     gridtolerance="10"
     guidetolerance="10"
     inkscape:pageopacity="0"
     inkscape:pageshadow="2"
     inkscape:window-width="1280"
     inkscape:window-height="738"
     id="namedview8"
     showgrid="false"
     inkscape:zoom="1.038"
     inkscape:cx="250"
     inkscape:cy="250"
     inkscape:window-x="-8"
     inkscape:window-y="-8"
     inkscape:window-maximized="1"
     inkscape:current-layer="svg2" />
  <metadata
     id="metadata7">
    <rdf:RDF>
      <cc:Work
         rdf:about="">
        <dc:format>image/svg+xml</dc:format>
        <dc:type
           rdf:resource="http://purl.org/dc/dcmitype/StillImage" />
        <dc:title />
      </cc:Work>
    </rdf:RDF>
  </metadata>
  <defs
     id="defs5" />
  <g
     id="g4982"
     transform="matrix(1.4002388,0,0,1.3643095,-189.11729,-284.85314)">
    <path
       style="fill:#000000;fill-opacity:1;fill-rule:evenodd;stroke:#ffffff;stroke-width:0.95949334;stroke-linecap:butt;stroke-linejoin:miter;stroke-miterlimit:4;stroke-opacity:1;stroke-dasharray:none"
       d="m 410.71193,412.45621 c 0,0 1.35055,-4.18237 1.27261,-6.0294 -0.0739,-1.75168 -1.86433,-3.85219 -1.68435,-5.59617 0.18407,-1.78364 1.47916,-4.10129 2.8552,-5.25098 0.94663,-0.79093 2.67921,-1.43678 3.9041,-1.29063 2.19561,0.26197 5.1296,1.99311 6.25737,3.89509 0.88651,1.49509 0.9596,4.1658 0.32673,5.78466 -0.23713,0.6065 -1.19909,0.96744 -1.55983,1.5096 -1.75035,2.63062 -3.83283,9.81026 -3.83283,9.81026 0,0 4.6463,-4.44562 6.87178,-6.05815 1.01068,-0.7323 2.67735,-1.25333 3.58638,-2.10855 1.07435,-1.01076 1.87561,-2.95346 3.30515,-3.31717 1.99573,-0.50779 4.18353,0.8494 5.52919,2.40826 0.92951,1.07675 1.2448,3.09142 1.5521,4.48028 0.44592,2.01528 0.37681,2.93575 0.009,4.96675 -0.29218,1.61345 -0.53601,3.61091 -2.11328,4.05909 -1.41799,0.40292 -2.35805,0.4492 -3.79461,0.1185 -1.16995,-0.26932 -2.80561,0.16772 -3.9801,0.41647 -2.15645,0.45673 -6.99027,2.26355 -6.99027,2.26355 0,0 4.16619,-0.45709 5.93364,-0.234 1.78664,0.22551 4.31197,0.63712 5.75117,1.71956 1.76917,1.33059 2.41521,4.65221 3.99211,6.20586 0.26252,0.25864 -0.30703,3.48262 -1.2756,4.3738 -1.35546,1.24714 -3.62656,2.67114 -5.46394,2.80024 -1.18486,0.0832 -2.91058,-0.44647 -3.74136,-1.29536 -0.6271,-0.64075 -0.24521,-2.25038 -0.91668,-2.84446 -1.09839,-0.97181 -3.16101,-0.79042 -4.33731,-1.66632 -1.07906,-0.80349 -1.86476,-1.93025 -3.18494,-2.18926 -1.51944,-0.29812 -1.95086,1.51393 -3.28841,2.29403 -1.55558,0.90725 -5.34377,0.13684 -6.37759,1.61135 -0.9227,1.31603 -1.24618,3.24323 -1.55383,4.82076 -0.28663,1.46976 -0.94816,3.44122 -1.85179,4.63528 -0.81433,1.07608 -2.29758,2.28215 -3.56664,2.74099 -1.85383,0.67028 -2.67221,0.28657 -4.53952,-0.34519 -1.86199,-0.62997 -2.36486,-1.68747 -3.55891,-3.24891 -0.57654,-0.75394 -1.36939,-1.93387 -1.30737,-2.88096 0.258,-3.94012 3.7933,-7.05 5.71038,-10.50195 0.77066,-1.38767 1.38722,-3.47467 2.33525,-4.74777 1.79258,-2.40725 7.33547,-6.80309 7.33547,-6.80309 l 2.3915,-4.50605 z"
       id="path7473"
       sodipodi:nodetypes="cssssssscssssssssscssssssssssssssssssscc"
       inkscape:connector-curvature="0" />
    <path
       style="fill:#000000;fill-rule:evenodd;stroke:#ffffff;stroke-width:0.63966221px;stroke-linecap:butt;stroke-linejoin:miter;stroke-opacity:1"
       d="m 417.97706,396.62365 c 0.008,-1.13415 0.96503,-2.58292 1.84297,-3.30097 1.09612,-0.8965 3.08743,-1.58426 4.49588,-1.43776 0.97944,0.10188 2.66542,0.11039 3.92924,0.8559 2.20082,1.29823 3.89402,3.59027 3.89402,3.59027 0,0 -3.93517,-1.21798 -5.50999,-0.67622 -1.5715,0.54063 -2.34944,3.37003 -3.91955,3.91471 -0.95759,0.3322 -2.51694,0.17512 -3.35552,-0.3942 -0.71968,-0.4886 -1.38328,-1.68187 -1.37705,-2.55173 z"
       id="path7475"
       sodipodi:nodetypes="cssscssss"
       inkscape:connector-curvature="0" />
    <path
       style="fill:#000000;fill-rule:evenodd;stroke:#ffffff;stroke-width:0.63966221px;stroke-linecap:butt;stroke-linejoin:miter;stroke-opacity:1"
       d="m 398.31219,443.51621 c -0.74856,0.85207 -0.99816,2.5703 -0.82052,3.69049 0.22177,1.39857 1.25071,3.23694 2.39962,4.06471 0.79897,0.57563 2.06326,1.69106 3.50276,1.97542 2.50674,0.49518 5.29578,-0.0893 5.29578,-0.0893 0,0 -3.7481,-1.70903 -4.56324,-3.16133 -0.81345,-1.44921 0.48838,-4.07902 -0.32133,-5.53032 -0.49383,-0.88515 -1.76242,-1.80542 -2.76724,-1.93836 -0.86237,-0.1141 -2.15171,0.33516 -2.72583,0.98867 z"
       id="path7477"
       sodipodi:nodetypes="cssscssss"
       inkscape:connector-curvature="0" />
    <path
       style="fill:#000000;fill-rule:evenodd;stroke:#ffffff;stroke-width:0.63966221px;stroke-linecap:butt;stroke-linejoin:miter;stroke-opacity:1"
       d="m 434.82403,432.69119 c 1.13361,0.0359 2.55849,1.02804 3.25482,1.92331 0.86938,1.11776 1.50814,3.12531 1.32716,4.52976 -0.12585,0.97665 -0.17567,2.66192 -0.95192,3.90709 -1.35195,2.16824 -3.68461,3.80486 -3.68461,3.80486 0,0 1.31403,-3.90414 0.81102,-5.49176 -0.50195,-1.58427 -3.31144,-2.43131 -3.81748,-4.01429 -0.30864,-0.96545 -0.1134,-2.52047 0.4763,-3.34485 0.50611,-0.70749 1.71527,-1.34167 2.58471,-1.31412 z"
       id="path7479"
       sodipodi:nodetypes="cssscssss"
       inkscape:connector-curvature="0" />
    <path
       style="fill:#000000;fill-rule:evenodd;stroke:#ffffff;stroke-width:0.63966221px;stroke-linecap:butt;stroke-linejoin:miter;stroke-opacity:1"
       d="m 436.48357,409.16884 c 0.80847,-0.79546 2.50986,-1.14165 3.6383,-1.02753 1.40887,0.14248 3.30238,1.06601 4.19368,2.16638 0.6198,0.76519 1.80481,1.96451 2.16998,3.38566 0.63588,2.4748 0.20978,5.29238 0.20978,5.29238 0,0 -1.91791,-3.64563 -3.41386,-4.37753 -1.4928,-0.73037 -4.04496,0.71785 -5.53965,-0.009 -0.91159,-0.44309 -1.90201,-1.65771 -2.09146,-2.65342 -0.16259,-0.85456 0.21318,-2.16721 0.83323,-2.77729 z"
       id="path7481"
       sodipodi:nodetypes="cssscssss"
       inkscape:connector-curvature="0" />
    <path
       inkscape:connector-curvature="0"
       style="fill:#000000;fill-opacity:1;fill-rule:evenodd;stroke:#ffffff;stroke-width:0.95949334;stroke-linecap:butt;stroke-linejoin:miter;stroke-miterlimit:4;stroke-opacity:1;stroke-dasharray:none"
       d="m 409.09448,426.51825 c 0,0 3.49431,-1.47546 4.25838,-2.79973 1.33732,-2.31784 1.54354,-6.436 0.51204,-8.90516 -0.50074,-1.19869 -3.24995,-2.86158 -3.24995,-2.86158 0,0 -1.1812,3.35469 -2.4453,3.92834 -5.0564,2.2946 -12.71531,-2.86298 -18.26666,-2.98522 -1.36715,-0.0301 -3.20183,0.87557 -4.52659,0.53643 -1.65838,-0.42455 -3.64482,-1.9238 -4.64678,-3.31179 -3.14557,-4.35751 -2.87268,-12.31259 -5.27552,-17.11975 -1.64903,-3.29909 -7.22445,-9.94756 -7.22445,-9.94756 l -13.31159,3.87261 -5.52285,12.91361 c 0,0 7.23654,12.91159 13.46303,21.28053 1.71338,2.30294 1.2954,5.69541 3.11333,6.64717 2.12591,1.113 5.45153,1.47931 7.85057,1.53267 6.58869,0.14654 14.73385,0.20038 21.08815,-1.54747 2.28606,-0.62881 7.31416,-2.99393 7.31416,-2.99393 l 6.87003,1.76083 z"
       id="path7471"
       sodipodi:nodetypes="csscssssscccsssscc" />
    <path
       style="fill:#000000;fill-opacity:1;fill-rule:evenodd;stroke:#ffffff;stroke-width:0.9594934;stroke-linecap:butt;stroke-linejoin:miter;stroke-miterlimit:4;stroke-opacity:1;stroke-dasharray:none"
       d="m 292.14526,541.52398 c 0,0 4.32361,-0.78899 5.91396,-1.73154 1.50825,-0.89389 2.51168,-3.46504 4.13327,-4.13161 1.65846,-0.68173 4.31304,-0.63732 5.97694,0.031 1.14469,0.45977 2.53342,1.68058 2.98419,2.82884 0.80802,2.05828 0.67106,5.46214 -0.47099,7.35558 -0.89772,1.4884 -3.21603,2.81638 -4.94165,3.02475 -0.64652,0.0781 -1.41965,-0.59863 -2.06796,-0.65996 -3.1457,-0.29743 -10.45619,1.26483 -10.45619,1.26483 0,0 6.11486,1.99 8.58843,3.1877 1.12335,0.54389 2.37091,1.76573 3.55445,2.16195 1.39876,0.46828 3.48938,0.25503 4.48617,1.34236 1.39159,1.51798 1.23104,4.08754 0.49439,6.0106 -0.50885,1.32833 -2.13457,2.5593 -3.21276,3.48715 -1.56448,1.34634 -2.4081,1.72095 -4.3714,2.35786 -1.55968,0.50597 -3.43479,1.23621 -4.57588,0.0587 -1.02587,-1.05861 -1.51142,-1.8649 -1.89975,-3.28697 -0.31626,-1.15814 -1.47517,-2.39235 -2.25001,-3.30939 -1.42265,-1.68373 -5.30147,-5.08743 -5.30147,-5.08743 0,0 2.37384,3.45412 3.01353,5.11678 0.64664,1.68073 1.47882,4.10026 1.20614,5.88032 -0.3352,2.18817 -2.95586,4.32888 -3.57853,6.4532 -0.10367,0.35364 -3.21343,1.37725 -4.45681,0.94558 -1.74004,-0.6041 -4.06908,-1.9312 -5.05214,-3.48882 -0.63393,-1.00446 -0.98376,-2.77543 -0.62896,-3.90898 0.2678,-0.85563 1.86655,-1.28074 2.07224,-2.15338 0.33647,-1.42747 -0.79922,-3.1588 -0.5841,-4.60953 0.19733,-1.3308 0.81826,-2.55609 0.42184,-3.84171 -0.45626,-1.47966 -2.25676,-1.00244 -3.57687,-1.81169 -1.53528,-0.94121 -2.64886,-4.64309 -4.43702,-4.85623 -1.59597,-0.19023 -3.44687,0.43659 -4.98222,0.91193 -1.43046,0.44287 -3.48029,0.79282 -4.9598,0.56168 -1.33328,-0.2083 -3.09759,-0.94439 -4.10208,-1.84573 -1.46762,-1.31609 -1.51678,-2.21862 -1.84368,-4.16261 -0.32597,-1.93845 0.36776,-2.88182 1.17844,-4.67253 0.39175,-0.8645 1.05585,-2.12138 1.91954,-2.51485 3.59329,-1.63689 8.00573,0.006 11.9539,0.062 1.58715,0.0224 3.7175,-0.42185 5.28763,-0.18898 2.96889,0.44031 9.4641,3.24376 9.4641,3.24376 l 5.10128,-0.0251 z"
       id="path7504"
       sodipodi:nodetypes="cssssssscssssssssscssssssssssssssssssscc"
       inkscape:connector-curvature="0" />
    <path
       style="fill:#000000;fill-rule:evenodd;stroke:#ffffff;stroke-width:0.63966227px;stroke-linecap:butt;stroke-linejoin:miter;stroke-opacity:1"
       d="m 309.53096,540.43363 c 1.00303,-0.52943 2.73212,-0.37186 3.7801,0.0619 1.30841,0.54156 2.85649,1.97043 3.3938,3.28059 0.37365,0.91109 1.16384,2.40046 1.105,3.86658 -0.10246,2.55314 -1.32062,5.12926 -1.32062,5.12926 0,0 -0.78883,-4.04311 -2.0112,-5.17419 -1.21982,-1.12869 -4.08056,-0.47537 -5.30328,-1.60092 -0.74574,-0.68646 -1.34513,-2.13455 -1.24032,-3.1427 0.0899,-0.8652 0.82723,-2.01442 1.59652,-2.42048 z"
       id="path7506"
       sodipodi:nodetypes="cssscssss"
       inkscape:connector-curvature="0" />
    <path
       style="fill:#000000;fill-rule:evenodd;stroke:#ffffff;stroke-width:0.63966227px;stroke-linecap:butt;stroke-linejoin:miter;stroke-opacity:1"
       d="m 258.91493,545.29532 c -1.10483,-0.25633 -2.73667,0.33671 -3.63951,1.02319 -1.12721,0.8571 -2.25997,2.63338 -2.44564,4.03721 -0.1291,0.97622 -0.51363,2.6178 -0.0831,4.02052 0.74977,2.44271 2.58425,4.6233 2.58425,4.6233 0,0 -0.26765,-4.11063 0.6261,-5.51589 0.89187,-1.40231 3.82466,-1.49965 4.72014,-2.89965 0.54616,-0.85385 0.7567,-2.40688 0.39842,-3.35502 -0.3075,-0.81372 -1.31332,-1.73707 -2.16069,-1.93366 z"
       id="path7508"
       sodipodi:nodetypes="cssscssss"
       inkscape:connector-curvature="0" />
    <path
       style="fill:#000000;fill-rule:evenodd;stroke:#ffffff;stroke-width:0.63966227px;stroke-linecap:butt;stroke-linejoin:miter;stroke-opacity:1"
       d="m 285.72654,572.34033 c 0.5047,1.0157 0.30481,2.74041 -0.15446,3.77744 -0.57356,1.29471 -2.03984,2.80735 -3.36277,3.3124 -0.91996,0.3512 -2.42825,1.10467 -3.8925,1.00992 -2.54985,-0.16519 -5.09536,-1.44592 -5.09536,-1.44592 0,0 4.06123,-0.6895 5.22192,-1.8838 1.15825,-1.1918 0.57523,-4.06769 1.7304,-5.26246 0.70453,-0.72869 2.16687,-1.29241 3.17214,-1.16293 0.86275,0.11114 1.99353,0.87638 2.38063,1.65535 z"
       id="path7510"
       sodipodi:nodetypes="cssscssss"
       inkscape:connector-curvature="0" />
    <path
       style="fill:#000000;fill-rule:evenodd;stroke:#ffffff;stroke-width:0.63966227px;stroke-linecap:butt;stroke-linejoin:miter;stroke-opacity:1"
       d="m 307.23474,562.67325 c 1.0833,0.33589 2.19327,1.67102 2.62663,2.71915 0.54106,1.30862 0.62331,3.41374 0.0756,4.71958 -0.38091,0.90806 -0.8768,2.5195 -1.95605,3.5136 -1.87943,1.73111 -4.5633,2.6888 -4.5633,2.6888 0,0 2.30436,-3.41453 2.24137,-5.07872 -0.0629,-1.66071 -2.54621,-3.22395 -2.61335,-4.88449 -0.041,-1.01275 0.56053,-2.45997 1.34813,-3.09797 0.67593,-0.54755 2.01015,-0.83756 2.841,-0.57994 z"
       id="path7512"
       sodipodi:nodetypes="cssscssss"
       inkscape:connector-curvature="0" />
    <path
       style="fill:#000000;fill-opacity:1;fill-rule:evenodd;stroke:#ffffff;stroke-width:0.95949334;stroke-linecap:butt;stroke-linejoin:miter;stroke-miterlimit:4;stroke-opacity:1;stroke-dasharray:none"
       d="m 270.54267,538.27736 0.16363,3.35313 c 0,0 2.61569,2.09233 3.96559,2.46849 2.84246,0.79207 7.18455,1.16658 9.83499,-0.13038 0.97936,-0.47923 2.26798,-2.83991 2.26798,-2.83991 l -2.81965,-3.50585 c 0,0 -8.24722,-5.2788 -10.63063,-7.62356 -2.76206,-2.71726 -7.56927,-12.95913 -7.56927,-12.95913 0,0 8.24286,-11.90465 5.34008,-21.43564 -1.28007,-4.20295 -6.23496,-8.54709 -10.73174,-13.69275 -3.62731,-4.15075 -6.78434,-9.24004 -8.80526,-11.97393 -6.18578,-8.36812 -2.83847,-18.73994 -12.59905,-22.34833 -3.97472,-1.46944 -10.72449,0.67924 -13.60941,3.78324 -3.70502,3.98638 -4.85225,12.49767 -3.56871,17.78641 1.57744,6.49981 10.31837,11.77982 13.91796,17.41709 3.13961,4.91686 12.02226,12.79066 12.14296,19.06325 0.0893,4.63854 -4.21232,10.38303 -4.21232,10.38303 0,0 3.44752,5.45915 5.41488,7.37222 5.62363,5.46843 21.49797,14.88262 21.49797,14.88262 z"
       id="path7578"
       sodipodi:nodetypes="ccssccscsssssssscsc"
       inkscape:connector-curvature="0" />
    <path
       style="fill:#000000;fill-opacity:1;fill-rule:evenodd;stroke:#ffffff;stroke-width:0.95949334;stroke-linecap:butt;stroke-linejoin:miter;stroke-miterlimit:4;stroke-opacity:1;stroke-dasharray:none"
       d="m 203.85839,335.53098 c 3.39547,-0.9834 7.96981,-2.18202 11.25736,-3.48135 3.42348,-1.35305 8.14185,-3.09097 11.03371,-5.3687 1.17243,-0.92344 5.19867,-5.1849 6.59287,-6.9103 2.38224,-2.94816 1.9776,-3.48798 1.9776,-3.48798 0,0 -6.74656,6.21479 -10.21093,7.97862 -1.61349,0.82149 -5.17623,1.96517 -7.00099,2.36991 -0.71672,0.15898 -1.08075,-0.0584 -1.08075,-0.0584 0,0 8.72983,-6.97747 12.28347,-10.18479 2.24461,-2.02585 5.30106,-4.70149 7.19217,-7.06072 0.40479,-0.50499 2.05576,-2.80873 2.56259,-3.62208 1.02704,-1.64873 0.88823,-1.92165 0.88823,-1.92165 0,0 -0.6814,0.47853 -2.00132,1.45577 -1.38562,1.0259 -3.43565,2.56883 -4.43997,3.27534 -2.31459,1.62823 -3.40993,2.63014 -6.15207,3.32953 -0.96468,0.24604 -3.40281,0.74751 -3.40281,0.74751 0,0 5.00711,-5.04121 8.28986,-7.6615 2.26688,-1.80944 5.37178,-4.15256 7.38243,-6.24304 1.61089,-1.67487 3.92594,-3.93893 4.7678,-6.10489 0.47427,-1.2201 0.34166,-4.35004 0.34166,-4.35004 0,0 -1.37617,2.58866 -2.19599,3.52781 -1.11108,1.2728 -7.42335,6.6832 -8.98441,7.69324 -0.61259,0.39637 -1.30114,1.02983 -2.20159,1.40243 -0.6844,0.28322 -1.06851,0.10562 -1.06851,0.10562 0,0 6.06487,-7.02981 8.5081,-10.48446 1.69753,-2.40025 3.77272,-5.76751 4.92428,-8.47244 0.43036,-1.01082 1.32257,-3.89797 1.74697,-5.45956 0.57731,-2.12416 0.62912,-2.85094 0.62912,-2.85094 0,0 -4.62701,5.93591 -6.65479,8.44413 -0.74765,0.92478 -2.38495,3.15116 -3.3583,4.31754 -0.64492,0.77282 -0.8485,0.7556 -0.8485,0.7556 0,0 0.10472,-0.21415 0.59772,-1.09234 1.40559,-2.50297 4.47961,-8.00894 5.70487,-10.71765 0.92269,-2.03964 2.9735,-7.09732 4.00527,-9.96459 0.85163,-2.36666 0.78539,-2.78654 0.78539,-2.78654 0,0 -3.73309,5.10446 -5.71364,6.93218 -0.52045,0.48031 -1.65017,1.54167 -2.47545,2.08567 -0.75522,0.49781 -1.23246,0.50101 -1.23246,0.50101 0,0 7.31262,-11.38655 8.11806,-16.97319 0.25784,-1.78844 0.11354,-5.56838 -0.42824,-8.10562 -0.55581,-2.60294 -1.51286,-3.94111 -1.51286,-3.94111 0,0 0.14213,7.37119 -0.83076,10.32131 -0.6972,2.11414 -3.92141,6.29968 -3.92141,6.29968 0,0 0.94167,-12.8124 0.91063,-18.313 -0.0234,-4.15084 -1.34672,-9.69042 -0.8431,-13.81066 0.34589,-2.82979 2.84666,-9.06645 2.84666,-9.06645 0,0 -0.71296,0.38683 -2.06424,2.4559 -1.07399,1.64448 -2.7694,4.86748 -3.26889,6.11166 -2.22491,5.54211 -3.33491,13.55832 -4.08626,19.4829 -0.52667,4.15284 -0.63542,13.93919 -0.63542,13.93919 0,0 -0.44122,-0.20428 -0.82018,-1.20162 -0.89274,-2.35084 -2.27423,-7.08478 -2.72289,-9.39492 -0.79137,-4.07478 -0.8431,-13.81065 -0.8431,-13.81065 0,0 -0.34631,0.0484 -0.95376,2.66834 -0.70334,3.03348 -1.68093,8.83196 -1.66416,11.08566 0.0549,7.3691 4.95187,24.06007 4.95187,24.06007 0,0 -0.72566,-0.62591 -1.11456,-1.76936 -1.51643,-4.45858 -5.05352,-15.93967 -8.23946,-20.83543 -0.59672,-0.91696 -2.06335,-3.2068 -3.19781,-4.3698 -1.82175,-1.86759 -3.35894,-2.50865 -3.35894,-2.50865 0,0 3.72886,5.98169 4.64107,8.83262 1.44539,4.51728 0.63235,11.16653 2.13644,15.66461 0.93531,2.79705 6.34834,13.39163 6.34834,13.39163 0,0 -0.88431,-0.33465 -1.83759,-1.45652 -2.44487,-2.87728 -6.74164,-8.68652 -8.09521,-10.6701 -3.07278,-4.50293 -2.49281,-13.04828 -6.13484,-17.10463 -1.13654,-1.26585 -5.10147,-2.47631 -5.10147,-2.47631 l 3.34264,4.1785 c 3.0992,3.87415 -0.31612,9.8361 1.53734,14.94204 l 4.54475,9.70558 7.86144,13.05098 c 0,0 -0.5604,-0.0404 -1.45435,-0.88421 -2.09989,-1.98222 -6.07429,-6.31533 -9.19323,-10.01872 -2.39575,-2.84469 -3.63868,-5.52967 -4.58205,-7.31783 -1.14618,-2.17263 -0.68758,-5.88724 -2.05947,-7.92489 -0.59883,-0.88945 -2.86697,-2.13427 -2.86697,-2.13427 0,0 0.34709,2.93315 0.54246,4.18356 0.40868,2.61579 0.64213,6.20841 1.58889,8.68086 0.65851,1.7197 0.7626,4.32692 2.2213,6.86414 4.21942,7.33909 11.50656,16.01587 11.50656,16.01587 0,0 -0.4218,0.0417 -1.32476,-0.82011 -2.40283,-2.29321 -7.44239,-7.67254 -11.20915,-12.33731 -2.63686,-3.26551 -3.62426,-6.48167 -5.03039,-8.61445 -1.49633,-2.26956 -4.04196,-8.11007 -4.04196,-8.11007 0,0 -0.84051,6.46148 -0.0465,9.06137 1.22271,4.00355 6.75601,12.52763 6.75601,12.52763 l 9.29668,11.61062 c 0,0 -0.43037,0.10619 -1.61848,-0.61136 -1.50995,-0.91196 -4.91299,-3.82886 -6.70901,-6.1804 -2.21099,-2.89486 -4.55381,-5.65763 -5.79718,-7.31632 -2.56478,-3.42149 -7.18635,-12.25447 -7.18635,-12.25447 0,0 -0.17099,0.91922 0.51993,3.9854 0.57943,2.57142 1.95746,7.18706 2.6811,8.84562 2.27817,5.22149 14.73073,20.70725 14.73073,20.70725 0,0 -0.92416,-0.24839 -2.10354,-1.37729 -3.78268,-3.62067 -11.89576,-12.17074 -14.74986,-16.28481 -1.47981,-2.13306 -3.94683,-7.70122 -3.94683,-7.70122 0,0 -0.406,0.49288 -0.10958,3.05004 0.27107,2.33845 1.21377,6.68436 1.86042,8.17901 1.8457,4.26618 2.07892,2.87464 4.21953,7.00074 0.87183,1.68044 10.02395,11.4841 10.02395,11.4841 0,0 -1.31125,-0.0799 -2.4975,-0.85384 -3.35863,-2.19116 -9.4732,-7.05741 -11.12981,-9.02739 -3.1651,-3.76379 -4.97542,-8.81617 -4.97542,-8.81617 0,0 -0.25582,0.46379 -0.15343,2.12245 0.0517,0.83717 0.4146,2.7403 0.50145,3.49682 0.39016,3.3987 1.48252,4.64098 3.07707,7.66767 2.55107,4.84233 9.93457,11.58668 9.93457,11.58668 0,0 -1.10998,-0.12094 -2.28618,-0.89912 -2.54902,-1.68646 -6.58384,-5.12544 -8.58572,-7.70585 -2.05969,-2.65495 -4.92646,-10.05916 -4.92646,-10.05916 0,0 -0.43611,1.26705 -0.48075,3.57178 -0.047,2.42534 0.31154,5.93238 0.90992,7.53382 1.88275,5.03871 8.89449,11.21998 8.89449,11.21998 0,0 -0.53082,0.28111 -1.63763,-0.28285 -1.37236,-0.6993 -3.50364,-2.4188 -5.11036,-4.28768 -1.62645,-1.89184 -4.10464,-6.70974 -4.10464,-6.70974 0,0 -0.56692,1.2481 -0.3182,2.99292 0.22597,1.5831 1.23661,3.57955 1.83986,5.34494 0.98639,2.88654 5.24145,9.41557 9.83361,12.76718 5.42227,3.95749 1.63381,5.83984 1.63381,5.83984 0,0 4.50636,-3.34154 9.65031,-4.83133 z"
       id="path7671"
       sodipodi:nodetypes="cssscsscssscssscssscssscssscsscssscsscsscscsscssscsscsscssscsscssscscccsssscssscssscsccssscsscsscssscsscssscsscsscsscssscs"
       inkscape:connector-curvature="0" />
    <path
       inkscape:connector-curvature="0"
       style="fill:#000000;fill-rule:evenodd;stroke:#ffffff;stroke-width:1.27932441;stroke-linecap:butt;stroke-linejoin:miter;stroke-miterlimit:4;stroke-opacity:1;stroke-dasharray:none"
       d="m 320.19556,255.36293 -10.63187,-5.67387 c 0,0 -6.55062,0.0576 -9.34725,-0.15298 -2.62972,-0.19799 -8.71183,-1.17379 -8.71183,-1.17379 0,0 2.77079,2.92748 4.12841,3.9862 1.32747,1.03524 4.76384,2.9654 4.76384,2.9654 0,0 -5.09108,1.00942 -7.30561,1.11791 -2.74133,0.13429 -6.45101,-1.06494 -9.13544,-0.49326 -1.37152,0.29208 -4.15979,2.13187 -4.15979,2.13187 0,0 2.73611,0.52619 3.72137,1.1553 0.90598,0.5785 2.40358,2.65734 2.40358,2.65734 0,0 -3.68669,2.04715 -5.36537,2.70337 -3.17155,1.23981 -10.9133,3.12131 -10.9133,3.12131 0,0 1.173,1.97823 1.85783,2.67519 0.97459,0.99186 3.76014,2.71038 3.76014,2.71038 0,0 -4.46209,-0.47419 -6.23624,0.12065 -1.80658,0.6057 -5.14083,3.72983 -5.14083,3.72983 l 4.15694,0.75506 1.38034,3.56242 c 0,0 -4.46721,2.29803 -5.36494,4.11746 -0.83985,1.70216 -0.89098,2.49647 -1.49523,4.29579 -0.4228,1.25905 -2.67022,3.53121 -2.67022,3.53121 0,0 3.7068,-0.64988 5.13261,-1.87848 0.64411,-0.55502 4.01616,-0.0316 4.01616,-0.0316 0,0 -0.96262,4.73597 -2.68125,6.56635 -1.16981,1.24588 -5.39242,1.8367 -5.39242,1.8367 0,0 3.76047,4.76261 5.9236,6.1245 1.81839,1.14479 4.59326,-0.16749 4.59326,-0.16749 0,0 -3.10885,4.05359 -3.67364,6.03282 -0.63382,2.22117 -1.19882,8.96932 -1.19882,8.96932 0,0 3.90694,-5.37083 5.29986,-4.10101 1.12058,1.02156 3.95278,-0.44488 4.05332,-0.98085 0.38224,0.79551 -1.23671,3.8219 -1.10908,5.04323 0.34746,3.32504 3.88521,10.44458 3.88521,10.44458 l 4.19803,-4.46868 c 0,0 -1.21811,3.76456 -1.12869,5.4243 0.12056,2.2376 2.29856,7.10703 2.29856,7.10703 0,0 0.44908,-3.61549 1.63212,-4.35533 1.28546,-0.80389 5.03119,0.47698 5.03119,0.47698 0,0 0.69686,5.5042 2.01028,7.38896 2.2042,3.16307 10.46516,7.4586 10.46516,7.4586 0,0 -3.03643,-3.99306 -2.82196,-5.95959 0.10612,-0.97309 1.99922,-2.57866 1.99922,-2.57866 0,0 4.75304,3.28082 6.17005,5.25709 1.65364,2.30629 3.49982,8.78832 3.49982,8.78832 0,0 2.05831,-0.30948 2.72255,-0.84867 1.2723,-1.03279 2.66302,-4.76929 2.66302,-4.76929 0,0 2.97037,2.81594 3.8353,4.31694 0.80023,1.38871 1.67625,5.07285 1.67625,5.07285 l 4.78005,-3.92774 1.71509,8.6216 c 0,0 5.25836,-1.87533 7.51743,-1.45818 0.82771,0.15284 2.49171,0.64817 2.38192,1.4827 -0.16671,1.26728 -4.07643,1.23949 -4.07643,1.23949 0,0 4.16668,4.86111 6.42697,6.36128 1.21881,0.80894 4.50693,1.86122 4.50693,1.86122 l -3.94797,1.79158 c 0,0 -1.61293,0.22189 -2.9639,-0.61744 -1.35593,-0.84253 -3.66122,-3.9455 -3.66122,-3.9455 0,0 -0.42806,4.52831 -0.24319,6.45835 0.14592,1.5235 1.4039,5.45224 1.4039,5.45224 l -6.42505,-6.56935 -2.92671,5.57905 c 0,0 -1.63925,-5.42601 -2.90263,-7.47231 -0.91975,-1.48974 -3.91659,-4.32649 -3.91659,-4.32649 l -2.28484,5.18747 -3.96857,-9.55221 -4.62852,1.36796 c 0,0 0.0295,-4.11962 -0.73252,-5.64934 -0.49428,-0.99231 -2.63885,-2.58687 -2.63885,-2.58687 l -4.92368,2.60059 c 0,0 -1.58752,-5.36584 -3.11444,-7.13204 -1.02233,-1.18252 -4.42358,-2.75357 -4.42358,-2.75357 l -3.30566,4.55203 c 0,0 -5.68764,-1.78321 -6.24261,-2.99668 -0.45045,-0.98493 1.572,-3.89438 1.572,-3.89438 0,0 -3.86342,0.0101 -5.73013,0.76389 -1.4959,0.60405 -5.17052,5.03471 -5.17052,5.03471 0,0 -2.43641,-2.68806 -3.68611,-3.73425 -1.15541,-0.96727 -2.80852,-3.71547 -2.80852,-3.71547 0,0 -3.15137,1.59505 -4.01776,2.77659 -0.79569,1.08512 -1.32269,4.28582 -1.32269,4.28582 0,0 -4.60957,-3.79441 -6.93395,-4.78835 -2.23868,-0.9573 -7.94793,-1.64254 -7.94793,-1.64254 0,0 2.66898,4.68603 2.77418,6.92022 0.0493,1.0481 -0.99062,3.35432 -0.99062,3.35432 l -9.52366,-4.72373 -0.37501,10.51569 c 0,0 -7.84016,-0.8043 -11.01638,0.10957 -2.39675,0.68959 -7.08571,4.34784 -7.08571,4.34784 l 8.51585,3.90749 c 0,0 -9.7877,2.1519 -13.31929,4.44872 -1.16702,0.75897 -3.12858,3.42708 -3.12858,3.42708 0,0 4.16009,0.88025 5.18094,2.22975 1.10829,1.46506 2.04902,4.31748 2.04902,4.31748 0,0 -4.49683,0.23551 -6.17892,0.79068 -1.42602,0.47064 -5.3959,2.15109 -5.3959,2.15109 l 7.27538,6.26925 -10.4148,5.85858 5.20575,6.02728 -7.88657,7.23332 c 0,0 3.06201,0.89527 4.08737,1.74807 1.41292,1.17513 3.39483,5.09908 3.39483,5.09908 l -9.01817,5.53362 9.55814,5.75068 c 0,0 -3.11112,1.11751 -4.93093,2.15715 -1.69407,0.9678 -4.61007,3.30622 -4.61007,3.30622 l 8.24635,5.25057 -11.34937,0.11154 1.48082,6.83739 c 0,0 -4.50873,-2.6823 -5.11351,-4.30595 -0.36824,-0.9886 -2.00009,-4.94545 -2.00009,-4.94545 0,0 -2.05983,2.20983 -3.81989,2.47864 -1.90132,0.29038 -3.19907,2.96729 -3.19907,2.96729 0,0 -2.49888,-4.40739 -2.16952,-5.67361 0.81689,-3.14053 3.93343,-7.14713 3.93343,-7.14713 l -10.2983,0.46469 c 0,0 2.50894,-5.33921 2.77472,-8.59829 0.21288,-2.61049 0.45389,-6.52627 0.45389,-6.52627 0,0 -2.15607,2.06745 -3.5506,3.3766 -1.0488,0.98457 -4.73947,-0.82476 -4.73947,-0.82476 l 4.62941,-15.43163 -5.83744,-0.53552 4.96217,-7.97163 -4.04124,-3.15869 7.22853,-7.39793 c 0,0 -2.66955,-1.28646 -3.3432,-2.30062 -0.73228,-1.10241 0.3563,-4.01958 0.3563,-4.01958 l 4.96032,-4.18047 0.11378,-6.90642 4.69186,-2.53563 c 0,0 -0.22846,-1.46621 -0.62539,-2.34097 -0.52373,-1.15422 0.37878,-4.20791 0.37878,-4.20791 l 6.63823,-0.61972 0.1812,-5.9406 8.5627,-1.90744 c 0,0 -2.1031,-1.39803 -2.41373,-2.36249 -0.39692,-1.23236 1.60716,-3.71321 1.60716,-3.71321 l 6.44302,-2.63481 -2.66573,-12.59223 0,0 -27.46315,19.22516 -23.9106,58.82881 19.65535,54.17498 30.55477,10.12334 28.89174,-23.95545 13.38603,-60.2965 25.71352,-10.68295 43.49994,21.99417 24.71306,5.21609 17.91843,-20.61886 9.91743,-17.97385 -19.82429,-21.23655 -43.96718,-27.36863 -17.3192,-27.30263 13.68431,-21.98359 19.75291,-14.29632 z"
       id="path7383"
       sodipodi:nodetypes="ccscscsscscscscscccsscscscscscscsccscscscscscscscccsscsccscscccsccccsccsccscscscscscscccsccscscscccccscccsccccscscsccscsccccccsccccsccccscccccccccccccccccccc" />
    <path
       style="fill:#000000;fill-opacity:1;fill-rule:evenodd;stroke:#ffffff;stroke-width:0.95949334;stroke-linecap:butt;stroke-linejoin:miter;stroke-miterlimit:4;stroke-opacity:1;stroke-dasharray:none"
       d="m 365.34594,257.17905 c 0,0 -7.81589,-2.09741 -17.66546,-3.69716 -9.84956,-1.59975 -21.48249,-3.37468 -34.07248,-0.48906 -5.57605,1.27802 -12.3304,3.28786 -19.22281,6.82378 -6.89241,3.53592 -14.89258,8.42959 -19.28316,19.10069 -4.13994,10.06192 -2.39599,18.64426 -0.17753,25.93118 2.21845,7.28693 5.44664,13.54387 9.81318,19.03516 11.39076,14.32481 26.20833,20.86439 37.82153,26.58051 11.6132,5.71611 19.8884,10.47059 24.35309,16.78394 0.13966,0.19749 1.51734,3.15799 1.93642,5.70263 0.2776,1.6856 -0.15254,2.44819 -0.29964,2.76513 -0.35232,0.75915 -2.83564,4.49778 -6.87231,6.82734 -2.27859,1.315 -6.64206,4.20772 -11.40136,3.36053 -4.2866,-0.76303 -8.89886,-5.01855 -12.51907,-8.2435 -7.63963,-6.80553 -16.609,-17.46058 -33.35602,-20.17476 -11.47875,-1.86035 -25.08733,-3.1008 -39.31217,6.68015 -17.77681,12.22324 -24.21231,27.8677 -29.10785,41.80961 -3.70137,10.54103 -1.48877,20.79888 -0.58374,26.05057 0.74503,4.32326 1.23695,7.32354 0.89976,8.91886 -0.14035,0.66404 -1.71477,3.73914 -3.42573,6.10859 -0.88657,1.22778 -6.28312,5.87447 -11.36199,6.54831 -4.62821,0.61405 -7.42319,0.1657 -10.39273,-0.87931 -6.80591,-2.39507 -10.4689,-7.34942 -12.65597,-10.79691 -2.18706,-3.44748 -7.53233,-14.0371 -8.85065,-23.07339 -0.77404,-5.30552 -0.58921,-15.64792 1.11383,-24.90099 1.70304,-9.25307 11.4155,-34.72798 21.02631,-41.37364 9.61081,-6.64566 27.69551,-31.35282 32.64702,-43.85393 0,0 6.34641,-13.1903 7.63455,-19.27502 0.9441,-4.45968 1.39609,-14.01656 1.35014,-19.22493 -0.0225,-2.54381 -0.44325,-3.37337 -0.44325,-3.37337 0,0 -2.99994,17.35279 -11.04967,30.8522 -4.00851,6.72227 -8.30794,10.82525 -13.56859,16.4443 -8.75617,9.35272 -15.00115,14.47923 -18.43424,16.85312 -9.63763,6.6642 -16.15782,13.11327 -24.88587,23.40821 -9.03154,10.65289 -16.73909,23.85792 -19.08426,36.5999 -2.34518,12.74197 -5.19411,22.97746 -3.58318,34.01949 1.64184,11.25376 4.1758,22.16862 10.51718,32.16457 6.34138,9.99596 15.34023,20.06669 27.87644,24.47831 4.45829,1.56892 8.04872,3.0576 16.57154,4.86072 8.52281,1.80311 20.78995,0.0247 30.69698,-9.12484 3.95312,-3.65085 6.63546,-7.15284 10.26928,-12.18524 3.63383,-5.03241 7.56892,-8.65517 9.49849,-18.92826 1.80851,-9.62848 3.22489,-14.92094 2.30986,-20.23077 -0.20333,-1.17989 -0.64507,-3.4994 -0.48174,-5.74198 0.37961,-5.21188 1.88212,-11.34359 1.88373,-11.34795 4.1917,-11.35549 10.04441,-13.40932 13.55054,-15.82012 0.42476,-0.29207 7.39981,-1.85613 14.77314,0.24175 5.88805,1.67529 10.92595,7.29063 14.56748,10.53459 8.20165,7.3062 18.98036,18.45801 36.98133,17.79292 10.19853,-0.37681 19.33158,-3.75265 27.90047,-8.6978 8.56888,-4.94515 16.7099,-11.3282 21.72125,-21.84483 4.19105,-8.79517 3.80976,-16.6809 2.61361,-23.94385 -1.19616,-7.26294 -3.45881,-13.94069 -7.96147,-20.30773 -10.71509,-15.1518 -25.62815,-22.18597 -37.50634,-28.03251 -11.87818,-5.84655 -19.95076,-10.6365 -24.92282,-16.88927 -0.51099,-0.64261 -2.31672,-3.85119 -2.87485,-5.39418 -0.43158,-1.19316 0.81587,-4.78186 1.87051,-5.32291 3.09856,-1.58961 7.40869,-1.44151 10.72291,-2.20112 2.64919,-0.6072 11.17846,-2.16541 19.13842,-0.87257 7.95994,1.29284 14.15311,2.94709 14.15311,2.94709 l 9.14485,-33.98225 z"
       id="path7292"
       sodipodi:nodetypes="csssssssssssssssssssssssssssscssssssssssssssssssssssssssssscc"
       inkscape:connector-curvature="0" />
    <path
       inkscape:connector-curvature="0"
       style="fill:#000000;fill-opacity:1;fill-rule:evenodd;stroke:#ffffff;stroke-width:0.95949334;stroke-linecap:butt;stroke-linejoin:miter;stroke-miterlimit:4;stroke-opacity:1;stroke-dasharray:none"
       d="m 345.67833,468.2306 c 0,0 4.28016,-0.99818 5.82281,-2.01691 1.46303,-0.96615 2.34031,-3.58303 3.92759,-4.32763 1.62337,-0.76152 4.27697,-0.84617 5.97139,-0.25951 1.16568,0.40359 2.6121,1.55547 3.11814,2.68047 0.90711,2.01657 0.93574,5.42307 -0.11294,7.36978 -0.82432,1.53025 -3.07534,2.96934 -4.7888,3.26135 -0.64195,0.10939 -1.44706,-0.52897 -2.09759,-0.55868 -3.15643,-0.14419 -10.38236,1.77153 -10.38236,1.77153 0,0 6.20435,1.69044 8.73322,2.76651 1.14845,0.48863 2.45392,1.64842 3.6553,1.98665 1.41988,0.39973 3.49767,0.0851 4.54612,1.12274 1.46372,1.44854 1.42824,4.02287 0.78593,5.97945 -0.44368,1.35151 -2.00766,2.66003 -3.03947,3.63918 -1.4972,1.42078 -2.32162,1.83596 -4.25165,2.56753 -1.53324,0.58118 -3.37065,1.40169 -4.56762,0.28104 -1.0761,-1.00751 -1.60026,-1.78924 -2.05725,-3.19075 -0.37218,-1.1414 -1.58971,-2.31784 -2.40819,-3.19612 -1.5028,-1.61261 -5.54247,-4.82377 -5.54247,-4.82377 0,0 2.53891,3.33467 3.25866,4.96428 0.72756,1.64731 1.67634,4.02354 1.4905,5.81474 -0.22845,2.20188 -2.74197,4.46743 -3.26066,6.6195 -0.0864,0.35828 -3.1427,1.5318 -4.4056,1.16107 -1.76733,-0.51881 -4.15813,-1.73112 -5.21572,-3.23915 -0.682,-0.97247 -1.11748,-2.72434 -0.8182,-3.8738 0.2259,-0.86763 1.8021,-1.36994 1.96513,-2.25155 0.2667,-1.44213 -0.95179,-3.11622 -0.80743,-4.57568 0.13241,-1.33882 0.69306,-2.59284 0.23462,-3.85767 -0.52763,-1.45575 -2.30283,-0.89154 -3.66062,-1.63587 -1.57921,-0.86548 -2.87139,-4.50886 -4.6678,-4.63485 -1.60332,-0.11244 -3.42157,0.6036 -4.93202,1.153 -1.40724,0.51187 -3.43764,0.96103 -4.92662,0.80208 -1.34184,-0.14326 -3.13984,-0.79274 -4.18711,-1.64378 -1.52984,-1.24322 -1.62281,-2.14229 -2.04381,-4.0681 -0.41979,-1.92031 0.22728,-2.89628 0.94996,-4.72427 0.34893,-0.88266 0.95149,-2.1702 1.79505,-2.60518 3.50948,-1.80959 7.99657,-0.38279 11.94278,-0.51903 1.58636,-0.0548 3.6926,-0.60203 5.27219,-0.44575 2.9868,0.2955 9.61057,2.77995 9.61057,2.77995 l 5.09404,-0.27296 z"
       id="path7516"
       sodipodi:nodetypes="cssssssscssssssssscssssssssssssssssssscc" />
    <path
       inkscape:connector-curvature="0"
       style="fill:#000000;fill-rule:evenodd;stroke:#ffffff;stroke-width:0.63966221px;stroke-linecap:butt;stroke-linejoin:miter;stroke-opacity:1"
       d="m 362.9905,466.29657 c 0.97611,-0.57756 2.71082,-0.50421 3.77863,-0.12194 1.3332,0.47728 2.94888,1.82928 3.54924,3.11178 0.41749,0.89184 1.27912,2.34104 1.29162,3.80831 0.0217,2.55509 -1.06978,5.18738 -1.06978,5.18738 0,0 -0.9844,-4 -2.2603,-5.07033 -1.27322,-1.06807 -4.09884,-0.27649 -5.37482,-1.34129 -0.77821,-0.64939 -1.44727,-2.06665 -1.39159,-3.0787 0.0478,-0.86855 0.72836,-2.05224 1.477,-2.49521 z"
       id="path7518"
       sodipodi:nodetypes="cssscssss" />
    <path
       inkscape:connector-curvature="0"
       style="fill:#000000;fill-rule:evenodd;stroke:#ffffff;stroke-width:0.63966221px;stroke-linecap:butt;stroke-linejoin:miter;stroke-opacity:1"
       d="m 312.67058,473.61254 c -1.11599,-0.20234 -2.71708,0.46932 -3.58549,1.19887 -1.08421,0.91087 -2.12931,2.74009 -2.24653,4.15129 -0.0815,0.98135 -0.38579,2.63967 0.11242,4.01982 0.86761,2.40337 2.8059,4.49223 2.8059,4.49223 0,0 -0.46711,-4.09277 0.35728,-5.5398 0.82266,-1.444 3.74725,-1.68377 4.57365,-3.12564 0.504,-0.87938 0.63882,-2.4408 0.23487,-3.37042 -0.34668,-0.7978 -1.39618,-1.67117 -2.2521,-1.82635 z"
       id="path7520"
       sodipodi:nodetypes="cssscssss" />
    <path
       inkscape:connector-curvature="0"
       style="fill:#000000;fill-rule:evenodd;stroke:#ffffff;stroke-width:0.63966221px;stroke-linecap:butt;stroke-linejoin:miter;stroke-opacity:1"
       d="m 340.76493,499.32249 c 0.55347,0.98997 0.43764,2.72236 0.0293,3.7805 -0.50977,1.3211 -1.90098,2.90316 -3.19779,3.4719 -0.90181,0.39551 -2.37169,1.22138 -3.83882,1.19792 -2.55486,-0.0411 -5.15961,-1.19657 -5.15961,-1.19657 0,0 4.02292,-0.88607 5.12419,-2.13538 1.09895,-1.24667 0.37685,-4.09083 1.47258,-5.34034 0.66829,-0.76206 2.1015,-1.39619 3.11188,-1.31572 0.86713,0.0691 2.03378,0.77842 2.45827,1.53769 z"
       id="path7522"
       sodipodi:nodetypes="cssscssss" />
    <path
       inkscape:connector-curvature="0"
       style="fill:#000000;fill-rule:evenodd;stroke:#ffffff;stroke-width:0.63966221px;stroke-linecap:butt;stroke-linejoin:miter;stroke-opacity:1"
       d="m 361.77787,488.6215 c 1.09835,0.28285 2.2719,1.56245 2.75569,2.58828 0.60401,1.28078 0.78848,3.37941 0.30488,4.71034 -0.33625,0.92553 -0.75331,2.55913 -1.78298,3.6045 -1.79307,1.82041 -4.42722,2.9074 -4.42722,2.9074 0,0 2.13568,-3.52248 1.99188,-5.18165 -0.14349,-1.65569 -2.69988,-3.09638 -2.84765,-4.7517 -0.0901,-1.00956 0.44031,-2.4843 1.19595,-3.15984 0.64852,-0.57975 1.96706,-0.93426 2.80945,-0.71733 z"
       id="path7524"
       sodipodi:nodetypes="cssscssss" />
    <path
       style="fill:#000000;fill-opacity:1;fill-rule:evenodd;stroke:#ffffff;stroke-width:0.95949334;stroke-linecap:butt;stroke-linejoin:miter;stroke-miterlimit:4;stroke-opacity:1;stroke-dasharray:none"
       d="m 326.02048,465.85581 c 0,0 1.95201,4.39999 3.42088,5.77881 1.83117,1.71894 3.79716,2.25104 6.29483,2.51479 1.55937,0.16467 4.78571,-0.53563 5.83245,-1.70315 1.09045,-1.21625 1.20579,-3.74097 1.20579,-3.74097 l -2.18418,-6.41262 c 0,0 -3.76048,-18.35429 -2.06814,-25.99096 1.50175,-6.77665 11.40719,-20.12935 11.40719,-20.12935 0,0 3.92451,-9.14821 2.70488,-12.91385 -1.59015,-4.90955 -4.3437,-9.52769 -9.09008,-11.55355 -3.64762,-1.55684 -9.35313,-1.92023 -13.18847,-0.91076 -4.64074,1.22148 -8.58235,4.17613 -10.84745,8.40672 -2.88105,5.38101 -2.84004,14.66515 -2.41956,20.75439 0.21491,3.11224 -0.52958,6.5992 -1.39731,10.33651 -0.90332,3.89061 -1.94017,8.05256 -2.1672,12.34554 -0.0773,1.46212 1.5224,2.11912 3.13144,3.09388 1.65895,1.005 3.34372,2.32223 4.28231,3.48606 2.56458,3.18007 5.80738,12.31737 5.80738,12.31737 l -0.72476,4.32114 z"
       id="path7574"
       sodipodi:nodetypes="csssccscssssssssscc"
       inkscape:connector-curvature="0" />
    <path
       inkscape:connector-curvature="0"
       style="fill:#000000;fill-opacity:1;fill-rule:evenodd;stroke:#ffffff;stroke-width:0.95949334;stroke-linecap:butt;stroke-linejoin:miter;stroke-miterlimit:4;stroke-opacity:1;stroke-dasharray:none"
       d="m 348.64831,413.26954 c -0.57784,1.00332 -1.09751,3.35966 -1.98505,4.10318 -0.83343,0.69821 -2.42172,1.01352 -3.11651,1.84979 -0.56005,0.67409 -1.01389,1.86643 -1.0055,2.74277 0.008,0.86306 -0.2289,2.16734 0.28275,3.33479 0.65388,1.49203 2.09034,2.77433 2.09034,2.77433 0,0 -0.75282,-4.32836 0.2169,-5.76015 0.67831,-1.00158 2.55112,-1.21555 3.6853,-1.6361 1.11621,-0.4139 2.88292,-0.38447 3.79987,-1.1437 0.71803,-0.5945 0.69165,-3.02817 0.89908,-3.937 0.1434,-0.6283 -0.28899,-1.54212 -0.0671,-2.14716 0.48782,-1.32981 2.58319,-2.21265 3.16404,-3.50455 0.74718,-1.66263 1.23155,-4.30433 0.67111,-6.03886 -0.56011,-1.73352 -2.44632,-3.68641 -4.07537,-4.50189 -0.35741,-0.17888 -1.05101,0.16567 -1.32648,-0.1239 -0.56726,-0.59627 0.10731,-1.94937 -0.11866,-2.74073 -0.46999,-1.64603 -1.42637,-3.9507 -2.80049,-4.97155 -1.2161,-0.90347 -3.42115,-1.25828 -4.92811,-1.10259 -0.76926,0.0795 -1.87296,0.45459 -2.34745,1.06528 -0.47244,0.60807 -0.19745,1.79961 -0.45012,2.52702 -0.36441,1.04901 -1.05818,2.39314 -1.7498,3.26199 -0.53524,0.67242 -1.39731,1.48308 -2.15649,1.88594 -1.56365,0.82977 -3.96417,1.81347 -5.70651,1.50082 -1.26866,-0.22765 -3.51592,-2.4693 -3.51592,-2.4693 0,0 0.55675,2.34588 1.6106,3.02787 0.56617,0.36636 1.28794,1.1135 2.30244,1.36306 1.07733,0.26504 2.45223,0.0213 3.16836,0.0171 1.92175,-0.0113 4.52801,-0.66602 6.19891,-1.6154 0.79911,-0.45403 1.27998,-1.97139 2.18127,-2.15124 0.81842,-0.16329 2.23526,0.28306 2.57864,1.04371 0.40682,0.90117 -0.51453,2.30754 -1.09327,3.10921 -0.78122,1.0822 -2.30233,2.17355 -3.51912,2.72207 -1.72974,0.77973 -4.58152,0.21621 -6.21232,1.18597 -1.42539,0.84759 -3.05453,2.67928 -3.50369,4.27566 -0.52933,1.88137 0.8959,6.45283 0.8959,6.45283 0,0 0.93946,-4.42411 2.19993,-5.78901 0.80731,-0.87419 2.42276,-1.43986 3.58414,-1.69907 1.39428,-0.3112 3.37505,0.35929 4.76194,0.0166 1.24404,-0.30738 2.50651,-2.19766 3.77305,-2.00256 1.05403,0.16237 2.25817,1.494 2.49291,2.53432 0.17751,0.78674 -0.47704,1.84156 -0.87956,2.54044 z"
       id="path7852"
       sodipodi:nodetypes="csssscssssssssssssssssscsssssssssscssssss" />
    <path
       inkscape:connector-curvature="0"
       style="fill:#000000;fill-opacity:1;fill-rule:evenodd;stroke:#ffffff;stroke-width:0.95949334;stroke-linecap:butt;stroke-linejoin:miter;stroke-miterlimit:4;stroke-opacity:1;stroke-dasharray:none"
       d="m 323.24535,385.65363 c 2.57373,0.33135 6.28387,2.01802 7.49919,4.3108 0.50514,0.95299 0.36487,2.71112 -0.26678,3.58541 -0.91683,1.26901 -3.60949,1.00833 -4.81913,2.00216 -2.18073,1.79164 -4.38836,5.12737 -5.22655,7.82237 -0.99413,3.19638 -0.13613,7.80959 -0.15658,11.15695 -0.0105,1.71688 0.7186,7.35294 -0.66262,8.37273 -1.58915,1.17331 -4.62572,-0.88454 -6.28922,-1.94983 -1.51574,-0.97065 -2.14233,-3.41937 -3.52166,-4.57568 -0.97627,-0.81842 -2.3552,-1.99767 -3.60508,-2.24408 -1.54954,-0.30551 -3.49069,-1.21732 -5.00724,-1.65836 -1.2426,-0.36137 -2.58193,-1.75325 -3.20434,-2.88785 -0.99223,-1.80873 -1.53796,-4.75816 -1.13762,-6.78195 0.12361,-0.62486 1.12204,-1.80254 1.12204,-1.80254 0,0 -0.0424,2.48327 0.35991,3.43958 0.55798,1.32617 1.82136,2.96181 3.06113,3.6919 2.27151,1.33769 6.11648,0.84773 8.6357,1.62408 2.10912,0.64995 2.99449,2.99864 4.80986,1.74353 1.04853,-0.72495 0.48816,-3.18149 -0.2167,-4.24364 -0.70843,-1.06755 -0.93128,0.16618 -1.91422,-0.65563 -2.41124,-2.016 -5.04302,-5.53773 -6.15638,-8.4769 -0.34491,-0.91056 0.41584,-2.58313 -0.3113,-3.2307 -1.62098,-1.44355 -5.40392,1.30905 -7.23389,0.14174 -1.02137,-0.65152 -2.02189,-1.94317 -2.20212,-3.14116 -0.0684,-0.45423 -0.38126,-2.1872 -0.32076,-2.84925 0.16472,-1.80201 1.55742,-3.36399 1.55742,-3.36399 0,0 -0.30993,3.31474 0.63448,4.14641 1.3469,1.18612 4.23919,-0.28462 5.9805,0.14991 1.9064,0.47572 4.51441,1.4966 5.85695,2.93127 0.91431,0.97704 0.84467,3.10676 1.72758,4.11229 1.02112,1.1629 2.92804,2.83087 4.45774,2.59619 1.73767,-0.26659 1.90404,-2.76289 1.92092,-4.5208 0.015,-1.56877 -0.73171,-2.33402 -1.42146,-3.7431 -1.11824,-2.2844 0.14456,-6.47989 -1.60663,-8.32439 -1.31757,-1.38779 -6.192,-1.53205 -6.192,-1.53205 0,0 2.21052,-1.92349 3.38839,-1.99956 1.79156,-0.11571 4.20854,1.1084 5.50223,2.35317 1.09133,1.05005 0.78663,3.92858 2.16244,4.56163 0.78952,0.36363 1.93371,-0.87164 2.79583,-0.76064 z"
       id="path7854"
       sodipodi:nodetypes="csssssssssssscssssssssssscsssssssscssss" />
    <path
       style="fill:#000000;fill-opacity:1;fill-rule:evenodd;stroke:#ffffff;stroke-width:0.95949328;stroke-linecap:butt;stroke-linejoin:miter;stroke-miterlimit:4;stroke-opacity:1;stroke-dasharray:none"
       d="m 178.52258,539.93386 c 0,0 4.38406,0.31024 6.15873,-0.20753 1.68308,-0.49104 3.294,-2.73217 5.03037,-2.97485 1.77584,-0.2482 4.33611,0.45451 5.78173,1.51537 0.99453,0.72981 2.0363,2.25744 2.18757,3.48169 0.27118,2.19451 -0.70738,5.45757 -2.28414,7.0078 -1.23944,1.2186 -3.81503,1.9288 -5.53831,1.70181 -0.64563,-0.0851 -1.22632,-0.93268 -1.83907,-1.15317 -2.97311,-1.06984 -10.44251,-1.37331 -10.44251,-1.37331 0,0 5.42851,3.44717 7.52684,5.22201 0.95293,0.80601 1.85773,2.29953 2.90567,2.97744 1.23852,0.80119 3.31655,1.11417 4.01185,2.4151 0.97071,1.81618 0.17663,4.26523 -1.01481,5.9449 -0.82298,1.16022 -2.70362,1.94856 -3.97856,2.57936 -1.84997,0.91531 -2.76023,1.06853 -4.82022,1.19756 -1.63648,0.1025 -3.63426,0.34385 -4.44692,-1.08029 -0.73061,-1.28034 -1.00055,-2.182 -1.0233,-3.65595 -0.0185,-1.20041 -0.83438,-2.68391 -1.35702,-3.76473 -0.9596,-1.98445 -3.87088,-6.2453 -3.87088,-6.2453 0,0 1.44099,3.93568 1.64743,5.70516 0.20867,1.78869 0.41347,4.33913 -0.29303,5.99557 -0.86845,2.03624 -3.93889,3.45853 -5.06994,5.36147 -0.18831,0.3168 -3.45489,0.53548 -4.552,-0.19164 -1.53532,-1.01756 -3.46151,-2.8818 -4.02664,-4.63487 -0.36442,-1.1305 -0.26317,-2.93285 0.3622,-3.94267 0.47202,-0.76223 2.12627,-0.7767 2.54237,-1.57085 0.68061,-1.2991 0.0108,-3.25832 0.57973,-4.61008 0.52187,-1.24 1.42781,-2.27256 1.36331,-3.61636 -0.0742,-1.54663 -1.93688,-1.53179 -3.01443,-2.64374 -1.25322,-1.29321 -1.41192,-5.1557 -3.09103,-5.80653 -1.49861,-0.58088 -3.44722,-0.43369 -5.05253,-0.35481 -1.49565,0.0735 -3.56813,-0.0969 -4.94379,-0.6885 -1.23969,-0.53312 -2.76573,-1.68455 -3.51499,-2.8069 -1.0945,-1.63952 -0.91785,-2.52595 -0.75139,-4.4902 0.16598,-1.95865 1.07239,-2.70002 2.30264,-4.23309 0.59403,-0.74025 1.54989,-1.79247 2.48429,-1.95894 3.88735,-0.69258 7.75302,1.99561 11.56348,3.03073 1.5318,0.41612 3.70571,0.51522 5.16872,1.13098 2.76635,1.16426 8.3611,5.49392 8.3611,5.49392 l 4.94748,1.24344 z"
       id="path7492"
       sodipodi:nodetypes="cssssssscssssssssscssssssssssssssssssscc"
       inkscape:connector-curvature="0" />
    <path
       style="fill:#000000;fill-rule:evenodd;stroke:#ffffff;stroke-width:0.63966221px;stroke-linecap:butt;stroke-linejoin:miter;stroke-opacity:1"
       d="m 195.63385,543.19825 c 1.10313,-0.26357 2.73882,0.31875 3.64614,0.9993 1.13281,0.84968 2.27721,2.61849 2.47208,4.02107 0.13551,0.97536 0.53078,2.61437 0.10945,4.01989 -0.73372,2.44758 -2.55386,4.64016 -2.55386,4.64016 0,0 0.24066,-4.11231 -0.66228,-5.51167 -0.90105,-1.39643 -3.83442,-1.47453 -4.73907,-2.86862 -0.55175,-0.85024 -0.77247,-2.40187 -0.42041,-3.35234 0.30216,-0.81571 1.30189,-1.74564 2.14795,-1.94779 z"
       id="path7494"
       sodipodi:nodetypes="cssscssss"
       inkscape:connector-curvature="0" />
    <path
       style="fill:#000000;fill-rule:evenodd;stroke:#ffffff;stroke-width:0.63966221px;stroke-linecap:butt;stroke-linejoin:miter;stroke-opacity:1"
       d="m 145.3975,535.32884 c -1.00647,-0.52286 -2.73449,-0.35395 -3.77961,0.0866 -1.30484,0.55008 -2.8435,1.98912 -3.3722,3.30279 -0.36768,0.91349 -1.14803,2.40804 -1.07961,3.87374 0.11921,2.55241 1.35424,5.12048 1.35424,5.12048 0,0 0.76229,-4.04819 1.97722,-5.18727 1.21238,-1.13667 4.07735,-0.50214 5.29266,-1.63568 0.74122,-0.69134 1.33109,-2.14332 1.21967,-3.15077 -0.0956,-0.8646 -0.84043,-2.00893 -1.61237,-2.40994 z"
       id="path7496"
       sodipodi:nodetypes="cssscssss"
       inkscape:connector-curvature="0" />
    <path
       style="fill:#000000;fill-rule:evenodd;stroke:#ffffff;stroke-width:0.63966221px;stroke-linecap:butt;stroke-linejoin:miter;stroke-opacity:1"
       d="m 164.64707,568.18838 c 0.23645,1.10925 -0.38578,2.73018 -1.08836,3.62055 -0.87718,1.11165 -2.67349,2.21236 -4.08043,2.37281 -0.97838,0.11157 -2.6266,0.46657 -4.02136,0.0109 -2.42882,-0.79367 -4.5762,-2.6668 -4.5762,-2.6668 0,0 4.10518,0.34138 5.52625,-0.52702 1.41808,-0.86656 1.56804,-3.79713 2.98389,-4.66735 0.86351,-0.53075 2.42006,-0.71338 3.36163,-0.33813 0.80804,0.32207 1.71322,1.34426 1.89458,2.19503 z"
       id="path7498"
       sodipodi:nodetypes="cssscssss"
       inkscape:connector-curvature="0" />
    <path
       style="fill:#000000;fill-rule:evenodd;stroke:#ffffff;stroke-width:0.63966221px;stroke-linecap:butt;stroke-linejoin:miter;stroke-opacity:1"
       d="m 187.88291,564.16955 c 0.96584,0.59458 1.70919,2.16365 1.86849,3.28659 0.19887,1.40202 -0.2446,3.46155 -1.09965,4.59031 -0.5946,0.78494 -1.47541,2.22257 -2.76785,2.91728 -2.25067,1.20975 -5.08833,1.47042 -5.08833,1.47042 0,0 3.0806,-2.73474 3.43316,-4.3624 0.35181,-1.62422 -1.66514,-3.75556 -1.31753,-5.38069 0.21202,-0.99116 1.15428,-2.2435 2.07571,-2.66577 0.79079,-0.3624 2.15522,-0.31175 2.896,0.14426 z"
       id="path7500"
       sodipodi:nodetypes="cssscssss"
       inkscape:connector-curvature="0" />
    <path
       style="fill:#000000;fill-opacity:1;fill-rule:evenodd;stroke:#ffffff;stroke-width:0.95949334;stroke-linecap:butt;stroke-linejoin:miter;stroke-miterlimit:4;stroke-opacity:1;stroke-dasharray:none"
       d="m 160.37336,532.53522 c 0,0 -0.0532,2.83048 0.5801,3.79102 1.85478,2.81299 6.17282,5.7152 9.53505,5.93537 2.24495,0.14699 6.82892,-3.09898 6.82892,-3.09898 l -7.18004,-8.14432 c 0,0 3.01098,-9.03085 4.91561,-12.61977 1.84485,-3.47628 4.5132,-8.17959 7.45433,-10.79449 2.96725,-2.63812 8.30996,-4.1204 11.69567,-6.19437 4.62511,-2.83316 13.18728,-11.39073 13.18728,-11.39073 0,0 5.54697,-9.51637 5.15388,-13.94141 -0.37037,-4.16931 -2.4043,-7.85941 -5.44303,-10.73801 -2.99521,-2.83736 -8.01623,-5.91808 -12.09361,-6.54804 -3.36006,-0.51913 -8.18668,0.43456 -11.12982,2.13671 -3.49886,2.02354 -6.5731,6.92585 -8.11052,10.63101 -1.23195,2.96903 -1.14942,7.30865 -1.44134,10.61753 -0.32864,3.72518 0.63917,9.22257 -1.34441,12.39282 -1.43591,2.29467 -5.06541,3.96696 -7.64158,4.79806 -1.02166,0.3296 -3.22399,1.71908 -3.22399,1.71908 0,0 -3.1121,13.01797 -2.47018,19.23584 0.28635,2.77364 2.81604,8.85776 2.81604,8.85776 l -2.08836,3.35492 z"
       id="path7659"
       sodipodi:nodetypes="cssccssscsssssssscscc"
       inkscape:connector-curvature="0" />
    <path
       inkscape:connector-curvature="0"
       style="fill:#000000;fill-opacity:1;fill-rule:evenodd;stroke:#ffffff;stroke-width:0.95949334;stroke-linecap:butt;stroke-linejoin:miter;stroke-miterlimit:4;stroke-opacity:1;stroke-dasharray:none"
       d="m 193.65399,457.68609 c 0.92707,-0.55326 2.42788,-0.29614 3.50744,-0.30493 1.82444,-0.0149 3.53068,0.47272 5.12264,1.36405 2.3224,1.30029 5.71782,2.74101 7.53203,4.68853 1.20019,1.28837 2.44846,3.45355 2.74118,5.18983 0.16048,0.95182 -0.7769,2.25983 -0.48684,3.18047 0.45879,1.45621 2.94684,2.26348 3.51467,3.68073 0.83277,2.07853 0.42675,5.26598 -10e-4,7.46381 -0.37717,1.93618 -1.42135,4.42227 -2.46692,6.09495 -1.0237,1.63729 -2.93675,3.42251 -4.3054,4.78465 -1.59187,1.5843 -4.14229,3.263 -5.58881,4.98104 -0.70748,0.84027 -1.62445,2.05481 -1.93495,3.10846 -0.48743,1.6541 -0.0941,5.7473 -0.0941,5.7473 0,0 -1.57195,-1.70336 -2.26333,-3.52004 -0.17653,-0.46386 -0.16582,-1.47725 -0.20944,-1.83448 -0.21398,-1.75232 0.22396,-4.25159 1.10908,-5.779 1.13222,-1.95385 4.23848,-3.19231 5.70837,-4.90663 0.90749,-1.05839 2.65877,-2.566 2.45589,-3.94535 -0.054,-0.36689 0.91819,-1.43763 0.78375,-2.621 -0.14507,-1.27676 -1.40842,-2.66097 -1.79642,-2.75867 -0.57939,-0.14588 -1.438,0.12701 -1.93977,0.45134 -1.49694,0.96763 -2.17368,3.65992 -3.60391,4.72367 -1.28148,0.95311 -3.30527,3.62585 -4.90061,3.55157 -2.03666,-0.0948 -5.09704,-1.30172 -7.10867,-0.96957 -0.89983,0.14858 -1.33687,3.01584 -1.58004,3.89482 -0.35846,1.296 0.53194,2.58568 0.53194,2.58568 0,0 -1.54842,-0.49897 -2.3226,-1.38746 -0.7742,-0.88848 -0.77418,-2.16648 -0.93952,-2.96549 -0.32486,-1.56995 0.131,-4.04366 1.24449,-5.19707 0.9968,-1.03255 3.17596,-1.2283 4.61031,-1.27722 1.21572,-0.0415 2.88213,1.35366 3.97222,0.8138 1.40898,-0.69775 1.29861,-3.48916 2.27536,-4.72125 1.27824,-1.61241 3.61114,-3.18736 5.33626,-4.30884 0.82616,-0.53706 2.59858,-0.56765 2.9231,-1.49807 0.40132,-1.15063 -0.57508,-3.18204 -1.67861,-3.699 -1.3537,-0.63418 -3.61542,0.41613 -4.80429,1.32235 -1.68033,1.28084 -1.77246,4.99457 -3.6015,6.05223 -1.21741,0.70397 -3.31086,0.35718 -4.68715,0.0682 -1.29236,-0.27134 -3.13773,-1.33198 -4.44197,-1.1251 -0.7795,0.12363 -1.4993,1.07618 -1.4993,1.07618 0,0 0.49188,-2.89305 1.41158,-3.60012 1.23971,-0.9531 3.86631,0.25851 5.17881,-0.59157 1.63156,-1.05672 2.04148,-4.09579 3.30381,-5.574 1.12788,-1.32075 4.55014,-1.96094 4.45665,-3.69521 -0.0819,-1.51932 -2.71029,-2.88062 -4.22959,-2.79872 -1.86769,0.10068 -3.63457,2.51611 -4.79947,3.97945 -0.87189,1.09529 -1.17592,3.11458 -2.09723,4.16862 -1.24496,1.42435 -4.21396,1.94977 -5.20327,3.56221 -0.80087,1.30536 0.27182,3.84829 -0.66256,5.06167 -1.14465,1.48646 -5.78761,2.36907 -5.78761,2.36907 0,0 2.32636,-2.75161 2.91827,-4.15517 0.63409,-1.50366 0.21663,-3.9173 1.00538,-5.34591 1.16412,-2.1085 4.61973,-3.4108 5.8865,-5.45927 0.99182,-1.60424 0.65453,-4.50977 1.76543,-6.03396 1.2254,-1.68129 3.95354,-2.82544 5.74007,-3.8916 z"
       id="path7856"
       sodipodi:nodetypes="cssssssssssscsssssssssssscssssssssssssscssssssssscsssss" />
    <path
       inkscape:connector-curvature="0"
       style="fill:#000000;fill-opacity:1;fill-rule:evenodd;stroke:#ffffff;stroke-width:0.95949334;stroke-linecap:butt;stroke-linejoin:miter;stroke-miterlimit:4;stroke-opacity:1;stroke-dasharray:none"
       d="m 175.77854,486.41904 c -1.19037,-0.52461 -1.2467,-2.1331 -2.10744,-3.10846 -0.94617,-1.07213 -3.09159,-1.45452 -4.04652,-2.51886 -1.17623,-1.31099 -2.27403,-3.55012 -2.54592,-5.29032 -0.087,-0.55658 0.25936,-1.85976 0.25936,-1.85976 0,0 -1.45766,2.13482 -1.5402,3.19595 -0.14468,1.85878 0.85461,4.34117 1.79936,5.94849 0.5975,1.01654 2.60853,1.65185 2.73342,2.82439 0.0606,0.56876 -0.45045,1.48898 -1.00754,1.61861 -0.44567,0.10369 -0.90301,-0.5698 -1.29488,-0.80605 -0.8576,-0.51695 -1.88164,-1.69336 -2.88294,-1.68227 -1.34284,0.0149 -2.25546,1.913 -3.59404,1.80518 -1.29821,-0.10456 -3.51056,-2.29752 -3.51056,-2.29752 0,0 0.65117,3.40178 1.74572,4.23076 1.28501,0.97322 3.91761,-0.13807 5.3365,0.62691 1.21797,0.65667 3.48877,2.2497 2.96712,3.53132 -0.35361,0.8689 -2.1981,0.52169 -3.11173,0.30879 -1.03054,-0.24014 -1.96536,-1.61754 -2.99442,-1.86396 -1.1125,-0.2664 -2.76306,0.81585 -3.79882,0.33025 -1.83264,-0.85919 -3.8499,-5.54057 -3.8499,-5.54057 0,0 -0.83113,1.13539 -0.20072,3.0981 0.34959,1.0884 1.96697,3.13378 2.47656,3.70843 1.16506,1.31379 3.94354,1.37864 5.28939,2.50651 1.87664,1.57267 2.40203,5.89496 4.73102,6.65051 1.79726,0.58303 4.57728,-0.73291 5.96833,-2.0116 1.57517,-1.44794 1.61097,-4.79003 2.83765,-6.543 0.77951,-1.11391 2.75434,-1.86805 3.28852,-3.11827 0.46456,-1.08717 0.93875,-3.2453 -0.0173,-3.94086 -0.82022,-0.59676 -2.00185,0.6064 -2.93005,0.19731 z"
       id="path7858"
       sodipodi:nodetypes="cssscssssssscsssssscsssssssss" />
    <path
       style="fill:#000000;fill-opacity:1;fill-rule:evenodd;stroke:#ffffff;stroke-width:0.95949334;stroke-linecap:butt;stroke-linejoin:miter;stroke-miterlimit:4;stroke-opacity:1;stroke-dasharray:none"
       d="m 438.31528,273.37414 c 0,0 5.49399,4.59203 8.59013,5.8744 3.5804,1.48294 9.83056,-0.36826 13.45053,1.0153 2.42733,0.92772 4.13146,4.92153 6.654,5.54558 2.6015,0.64359 6.12282,-2.44861 8.73731,-1.85999 3.64377,0.82035 7.33067,4.84157 9.89121,7.56068 1.55773,1.65419 4.23018,6.28258 4.23018,6.28258 0,0 0.11583,-2.31182 -0.29446,-3.84547 -0.46575,-1.74096 -1.5011,-2.78741 -2.19525,-3.88021 -2.18779,-3.44421 -6.07731,-7.978 -9.94485,-9.27841 -2.65684,-0.89332 -6.61245,1.76529 -9.29474,0.95158 -2.55446,-0.77494 -4.47815,-4.35885 -6.97559,-5.3015 -2.39782,-0.90504 -5.9035,-0.14574 -8.4198,-0.63242 -1.72087,-0.33283 -3.97749,-1.11773 -5.48554,-2.01101 -2.67994,-1.58746 -8.77579,-5.65067 -8.77579,-5.65067 l -3.68647,2.52123 3.51913,2.70833 z"
       id="path7732"
       sodipodi:nodetypes="cssssscsssssssccc"
       inkscape:connector-curvature="0" />
    <path
       style="fill:#000000;fill-opacity:1;fill-rule:evenodd;stroke:#ffffff;stroke-width:0.95949334;stroke-linecap:butt;stroke-linejoin:miter;stroke-miterlimit:4;stroke-opacity:1;stroke-dasharray:none"
       d="m 433.4443,276.14444 c 0,0 5.61889,9.10175 6.76945,13.47768 0.86239,3.2799 -1.02289,6.796 -0.0828,10.05447 0.94903,3.28947 5.24228,6.72972 5.47502,10.14543 0.21738,3.19003 -3.12005,7.74711 -3.16315,10.94424 -0.0282,2.08795 2.26718,4.21811 1.98186,6.28667 -0.87143,6.31783 -10.08894,9.72395 -12.0719,15.78547 -0.93789,2.86693 -1.03107,6.49428 -0.56384,9.47432 0.17299,1.10334 3.14217,5.3246 3.14217,5.3246 0,0 -0.92481,-0.23036 -2.29596,-1.6072 -0.83389,-0.83735 -2.28535,-2.83614 -2.48754,-3.33549 -1.48174,-3.65927 -1.5706,-7.47721 -0.55101,-11.29117 1.3669,-5.11312 8.90798,-9.49087 9.72445,-14.7202 0.34352,-2.20009 -2.06907,-4.9196 -2.00867,-7.14553 0.0142,-0.52379 0.1263,-1.06162 0.30187,-1.60876 0.88207,-2.74884 3.36637,-5.73275 3.09043,-8.35067 -0.2782,-2.63944 -4.57865,-5.55844 -5.345,-8.09944 -1.05369,-3.49369 0.27128,-9.29766 -0.73059,-12.80656 -1.05433,-3.69267 -5.2727,-10.01949 -5.2727,-10.01949 l 4.0879,-2.50837 z"
       id="path7734"
       sodipodi:nodetypes="cssssssscssssssssscc"
       inkscape:connector-curvature="0" />
    <path
       style="fill:#000000;fill-opacity:1;fill-rule:evenodd;stroke:#ffffff;stroke-width:0.95949334;stroke-linecap:butt;stroke-linejoin:miter;stroke-miterlimit:4;stroke-opacity:1;stroke-dasharray:none"
       d="m 382.1786,251.06693 c 0,0 -6.06442,-6.40888 -8.66408,-9.15489 -4.02295,-4.24939 -9.18292,-10.1184 -13.41232,-14.16238 -1.21088,-1.15779 -2.81111,-2.75203 -4.22265,-3.65442 -1.11046,-0.70991 -2.69222,-1.6797 -4.0039,-1.80841 -0.61288,-0.0601 -1.61256,-0.0139 -1.99944,0.46524 -0.63809,0.79025 -0.30851,2.40156 -0.0554,3.38524 0.64094,2.49076 2.92917,5.23886 4.26027,7.43951 1.14926,1.90001 2.61249,4.4913 3.98117,6.23988 1.49735,1.91298 3.63199,4.41713 5.58071,5.86766 3.99765,2.97564 14.81584,7.5127 14.81584,7.5127 l 3.7198,-2.13014 z"
       id="path7078"
       sodipodi:nodetypes="cssssssssscc"
       inkscape:connector-curvature="0" />
    <path
       style="fill:#000000;fill-opacity:1;fill-rule:evenodd;stroke:#ffffff;stroke-width:0.95949334;stroke-linecap:butt;stroke-linejoin:miter;stroke-miterlimit:4;stroke-opacity:1;stroke-dasharray:none"
       d="m 377.82677,254.79316 -3.24472,-5.49838 c 0,0 -1.66364,-6.10012 -1.50282,-8.76237 0.0508,-0.84026 0.72855,-1.84996 0.80381,-2.68838 0.15975,-1.78009 0.12602,-4.31683 -0.66296,-5.92049 -0.46668,-0.94852 -1.67266,-1.83591 -2.53486,-2.44754 -1.33023,-0.94366 -3.58813,-1.41806 -4.85651,-2.44331 -1.21664,-0.98344 -3.2682,-4.06358 -3.2682,-4.06358 0,0 -1.25272,3.78007 -1.05968,5.42795 0.21677,1.85073 2.40179,3.80006 2.56674,5.65612 0.15087,1.69781 -0.73062,3.9387 -1.39871,5.50681 -0.31834,0.74713 -1.43059,2.29822 -1.43059,2.29822 0,0 -2.92944,-5.80215 -4.55367,-8.05249 -1.57285,-2.17915 -3.81845,-5.08847 -6.01197,-6.64116 -1.89221,-1.33942 -4.83957,-2.61044 -7.12708,-2.98704 -3.59926,-0.59258 -8.50566,1.28004 -12.12873,0.85678 -2.04542,-0.23895 -5.58569,-1.73766 -6.55144,-2.04894 -0.9658,-0.3113 -4.48622,-2.58583 -6.2679,-3.90163 -1.50362,-1.11045 -4.70301,-4.08706 -4.70301,-4.08706 l 0.57982,3.25978 c 0,0 0.2349,3.36933 0.89532,4.6157 0.60371,1.13933 3.03158,3.04664 3.03158,3.04664 0,0 -0.24547,0.15626 -1.01369,-0.11196 -1.02857,-0.35908 -2.71642,-1.21816 -3.34613,-1.73229 -1.99756,-1.6309 -3.36166,-4.99146 -4.86496,-7.08672 -0.83123,-1.15855 -1.70625,-2.95248 -2.85036,-3.80348 -0.54224,-0.40334 -1.40449,-1.06565 -2.35339,-1.39812 -1.59242,-0.55794 -3.31117,-0.67853 -3.31117,-0.67853 0,0 2.82099,2.01832 3.44944,3.30674 0.89988,1.84493 0.35373,4.7825 0.69061,6.80736 0.37698,2.26591 0.80648,5.35672 1.73526,7.45763 0.7487,1.69356 2.46413,3.54902 3.50483,5.08054 1.41146,2.07712 4.65606,6.95668 4.65606,6.95668 0,0 -4.26566,-1.99201 -6.16134,-2.67574 -2.30867,-0.83269 -5.41174,-2.06277 -7.85621,-2.28135 -2.51534,-0.2249 -8.37222,0.87606 -8.37222,0.87606 0,0 4.23274,1.31482 5.74344,2.41563 2.18915,1.59517 4.25688,4.68308 5.88196,6.85012 3.66603,4.88863 7.08775,12.47341 11.11779,17.06655 2.26566,2.58223 5.75807,5.67182 8.70036,7.44499 2.82792,1.70426 10.23329,4.05092 10.23329,4.05092 0,0 -5.04427,1.25007 -7.14634,0.76949 -2.15919,-0.49364 -4.23899,-3.01315 -6.26785,-3.9016 -1.90447,-0.83396 -4.46883,-2.12513 -6.54286,-2.27033 -0.90233,-0.0632 -2.59487,-0.0786 -3.91101,0.12209 -1.73747,0.26495 -3.1651,1.20772 -3.1651,1.20772 0,0 6.49116,1.92753 8.71966,3.6885 1.55973,1.2325 2.88135,3.64724 3.92266,5.34061 1.49231,2.4268 2.18446,6.55518 4.2936,8.47038 2.39066,2.17083 10.02439,3.92088 10.02439,3.92088 0,0 -0.11573,0.26316 -1.10794,0.48791 -1.32485,0.3002 -3.71893,0.57817 -4.73363,0.514 -1.14387,-0.0723 -3.65419,-1.11512 -3.65419,-1.11512 0,0 1.13376,2.72186 3.23988,3.62975 1.52357,0.65682 6.75948,1.66571 8.40475,1.87947 3.57026,0.4639 8.50136,-0.15904 11.97519,0.78696 1.57365,0.42853 4.85656,2.44333 4.85656,2.44333 0,0 -5.13046,-0.14144 -7.22519,0.43052 -1.2459,0.34019 -2.88078,1.08897 -3.83116,1.96345 -0.97798,0.8998 -2.34098,3.76073 -2.34098,3.76073 0,0 3.4492,-1.32056 5.00583,-1.52214 1.18061,-0.1529 2.79522,-0.0695 3.96544,0.14932 2.60555,0.48722 5.73221,2.48322 8.35299,2.88049 2.63189,0.39891 6.25847,0.24423 8.86893,-0.27699 1.91147,-0.38164 4.25604,-1.60358 6.07402,-2.30663 3.0023,-1.16111 8.3415,-5.24286 8.3415,-5.24286 l 12.68924,6.15947 1.02117,2.08508 c 0,0 -1.81825,5.51591 -3.90162,6.26787 -1.78541,0.64444 -4.60929,-2.67739 -6.44904,-3.14474 -1.92674,-0.48942 -2.78914,-0.79398 -4.72233,-0.33059 -1.00004,0.23971 -2.33391,2.44549 -3.25558,2.90152 -1.07724,0.53296 -4.69457,0.55635 -4.69457,0.55635 0,0 3.00739,1.79142 4.43869,2.18322 2.00657,0.54927 4.10612,-0.9235 6.18058,-1.08075 0.83293,-0.0632 2.63782,0.77104 3.44524,0.98504 1.88951,0.50078 3.11856,3.39918 4.78188,4.42604 1.60166,0.98878 3.99117,2.19598 5.87346,2.20668 1.31446,0.007 3.12104,-0.63881 4.11899,-1.49441 1.01042,-0.86635 1.83841,-2.59257 2.13205,-3.89076 0.53772,-2.37748 -0.45822,-8.11213 -0.45822,-8.11213 l -4.28932,-6.14864 -26.09388,-16.53333 6.90611,-32.51649 z"
       id="path6985"
       sodipodi:nodetypes="ccssssscssscssssssccscssssscsssscsscsssscsssscssscsscssscsscssssscccsssscssssssscccc"
       inkscape:connector-curvature="0" />
    <path
       style="fill:#000000;fill-opacity:1;fill-rule:evenodd;stroke:#ffffff;stroke-width:0.95949334;stroke-linecap:butt;stroke-linejoin:miter;stroke-miterlimit:4;stroke-opacity:1;stroke-dasharray:none"
       d="m 373.93081,264.89857 3.17324,-2.94294 0.76952,-4.58825 -0.71709,-1.96052 c 0,0 -3.23484,-0.18329 -4.54764,-0.59526 -1.38051,-0.43321 -3.28039,-1.09746 -4.56053,-1.77179 -1.54813,-0.81551 -3.62687,-1.87764 -5.14166,-2.75347 -1.80734,-1.04496 -4.05952,-2.7069 -5.90787,-3.67751 -2.07214,-1.08813 -4.9252,-2.39795 -7.15414,-3.11192 -1.8067,-0.57878 -6.18523,-1.31655 -6.18523,-1.31655 0,0 0,0 0,0 0,0 -1.39305,-0.2315 -1.94554,-0.46588 -3.28489,-1.39354 -7.3453,-3.95378 -10.36454,-5.85556 -1.4774,-0.93058 -3.27158,-2.56436 -4.94108,-3.07572 -0.87784,-0.26887 -1.85731,-0.95561 -2.72381,-0.65225 -0.60057,0.21023 -1.43886,0.77063 -1.6069,1.38433 -0.22077,0.80628 0.34547,1.3966 0.76836,2.11769 0.41939,0.71511 1.17239,1.57756 1.85452,2.04863 0.85766,0.59229 2.38745,1.40651 3.35617,1.79107 1.21807,0.48355 2.8642,1.07806 4.05334,1.6289 0.96683,0.44789 2.24804,1.07655 3.14134,1.65734 0.28816,0.18731 0.91221,0.36568 0.89987,0.70918 -0.0268,0.74721 -1.35257,1.16508 -2.06286,1.39857 -1.22016,0.40112 -2.99411,0.20321 -4.27803,0.16872 -1.01816,-0.0274 -2.37712,-0.13991 -3.38037,-0.31576 -0.62676,-0.10987 -1.45082,-0.32716 -2.05296,-0.53274 -1.41742,-0.48394 -3.26215,-1.27092 -4.59037,-1.96315 -2.18792,-1.14033 -4.71323,-3.37662 -6.982,-4.34615 -0.69551,-0.29718 -1.69176,-0.72046 -2.44212,-0.62594 -0.69136,0.0871 -1.68591,0.51472 -2.03656,1.11687 -0.31792,0.54591 -0.19693,1.51628 0.0306,2.10559 0.42832,1.10905 1.80986,2.10318 2.62072,2.97267 0.66558,0.71372 2.12396,1.68902 2.91443,2.26129 1.60619,1.16282 3.42197,2.3286 5.28969,2.99464 2.0804,0.74187 4.99362,1.31122 7.17828,1.63662 2.33435,0.3477 5.49571,0.76754 7.84691,0.56247 1.57782,-0.13761 3.60949,-0.81027 5.12094,-1.28342 0.77524,-0.24268 1.72464,-1.03618 2.53308,-0.95684 0.45332,0.0445 0.85735,0.65694 1.28898,0.80235 0.80434,0.27099 1.96906,0.22583 2.81698,0.26315 1.20991,0.0533 2.955,-0.56499 4.03688,-0.0208 0.36523,0.1837 0.70653,0.70192 0.8067,1.0983 0.0916,0.36245 -0.0447,0.88272 -0.17212,1.23419 -0.0776,0.2141 -0.22032,0.50637 -0.40118,0.64448 -0.36366,0.27689 -1.01308,0.3413 -1.46109,0.43185 -0.90063,0.18205 -2.12915,0.428 -3.04384,0.34082 -0.89818,-0.0856 -1.97646,-1.00531 -2.87172,-0.89337 -0.58952,0.0737 -1.37402,0.53139 -1.688,1.03578 -0.35879,0.57647 -0.5707,1.67794 -0.2105,2.25355 0.30799,0.49221 1.97304,1.0056 2.49685,1.25617 1.43855,0.68819 2.1345,0.90492 3.69054,1.25402 1.53336,0.34405 3.64242,0.47871 5.16365,0.0845 0.97837,-0.25357 2.1235,-1.04024 3.08223,-1.36019 0.91658,-0.30587 2.42828,-0.48503 3.39245,-0.42191 0.96568,0.0632 2.14725,0.71582 3.01968,1.13451 1.60879,0.77204 3.57626,2.13229 5.11541,3.03519 2.09638,1.22979 7.00832,4.06447 7.00832,4.06447 z"
       id="path6956"
       sodipodi:nodetypes="ccccssssssssssssssssssssssssssssssssssssssssssssssssssssc"
       inkscape:connector-curvature="0" />
    <g
       style="fill:#000000"
       id="g6928"
       transform="matrix(0.54304697,0.33803514,-0.33803514,0.54304697,-160.65353,-228.33395)">
      <path
         sodipodi:nodetypes="csscccscccscsssscccscscscscscscscscscsccsscsssssscscsccsccscscscssscccc"
         id="path6819"
         d="m 1215.1925,232.70588 c 0,0 5.7253,-1.28922 8.1577,-0.90641 1.9637,0.30905 4.3907,1.61349 6.0427,2.71922 1.865,1.24828 5.4385,5.13632 5.4385,5.13632 l -3.3235,0 -3.6256,0.60427 c 0,0 1.8779,1.54478 2.417,2.4171 0.9041,1.46295 1.8129,5.43845 1.8129,5.43845 l -4.5321,-1.81282 -1.5107,0 c 0,0 1.4152,2.04199 1.8129,3.02137 0.5956,1.46664 1.2085,5.13631 1.2085,5.13631 0,0 -5.5134,-1.61425 -7.5534,-2.41708 -1.8727,-0.73699 -3.1395,-2.66857 -5.1363,-2.4171 -2.8095,0.35383 -4.8063,4.70378 -6.0428,7.25128 -1.3352,2.75079 -2.2292,6.91494 -2.1149,9.9705 0.085,2.26443 2.1149,7.25127 2.1149,7.25127 l -9.6683,-7.55341 -3.0214,4.83418 c 0,0 -3.1188,-2.92502 -3.9278,-4.53204 -0.7515,-1.49284 -1.2085,-5.43846 -1.2085,-5.43846 0,0 -1.9147,1.29276 -2.4171,2.11496 -0.5846,0.95671 -0.9064,3.62563 -0.9064,3.62563 0,0 -2.5018,-3.2048 -3.0214,-4.83418 -0.4689,-1.4706 -0.3021,-5.13632 -0.3021,-5.13632 0,0 -1.3196,2.44936 -2.115,3.3235 -1.391,1.5288 -5.4384,4.22991 -5.4384,4.22991 0,0 0.8866,-4.03207 0.6043,-5.74059 -0.2116,-1.28042 -1.8129,-3.92777 -1.8129,-3.92777 0,0 -1.5124,4.46303 -2.7192,6.04272 -1.2118,1.58625 -5.1363,4.22991 -5.1363,4.22991 0,0 0.011,-2.99693 -0.3021,-4.22991 -0.2699,-1.06145 -1.5107,-3.3235 -1.5107,-3.3235 0,0 -2.6684,4.27846 -4.2299,5.7406 -1.9638,1.83886 -7.5534,4.83418 -7.5534,4.83418 0,0 -0.096,-3.81745 -0.3022,-5.43846 -0.1166,-0.91698 -0.6043,-3.02136 -0.6043,-3.02136 0,0 -2.7023,6.05516 -4.0091,7.23394 -0.8433,0.7607 -3.3235,1.81282 -3.3235,1.81282 l 0.6856,-6.62967 c 0,0 -2.8314,3.80481 -4.532,4.83418 -1.4486,0.87683 -3.783,1.15471 -5.4385,1.51068 -2.3311,0.50124 -7.8555,1.20855 -7.8555,1.20855 0,0 4.3222,-4.26204 5.1363,-6.647 0.205,-0.60047 0.3126,-1.56283 0,-2.11496 -0.5208,-0.91983 -1.9918,-1.57323 -3.0213,-1.81281 -1.0631,-0.24739 -2.593,-0.0513 -3.6257,0.30213 -2.0456,0.70012 -4.0785,3.02407 -6.0427,3.92778 -2.9183,1.34267 -7.8809,2.82576 -11.0405,3.40532 -1.1624,0.21322 -3.1599,-0.0818 -3.1599,-0.0818 0,0 4.2317,-2.08009 5.4384,-3.62564 1.6585,-2.12418 3.0214,-8.45982 3.0214,-8.45982 0,0 -4.1652,4.01982 -6.3449,5.13632 -1.8396,0.94232 -6.647,1.81282 -6.647,1.81282 l 1.6883,-5.34763 c 0,0 -3.4989,0.80284 -5.0801,0.71033 -1.4438,-0.0845 -4.2862,-1.08699 -4.2862,-1.08699 l 3.6257,-4.53204 c 0,0 -2.9278,-1.95021 -5.3139,-2.13126 -2.6319,-0.1997 -8.4598,2.41709 -8.4598,2.41709 0,0 2.1747,-4.70135 3.6256,-6.34487 1.4997,-1.6988 6.0428,-4.53204 6.0428,-4.53204 0,0 -3.4879,-0.30257 -4.8342,-0.90641 -2.2994,-1.03131 -6.647,-5.13632 -6.647,-5.13632 0,0 3.2251,0.37482 4.532,0 1.6439,-0.47147 3.3258,-2.21539 4.8342,-3.02136 1.7533,-0.93683 4.1245,-2.1975 6.0427,-2.71923 8.0941,-2.20148 27.7966,-3.02137 27.7966,-3.02137 l 6.3448,9.97051 63.1465,13.294 18.1282,-16.6175 z"
         style="fill:#000000;fill-opacity:1;fill-rule:evenodd;stroke:#ffffff;stroke-width:1.5;stroke-linecap:butt;stroke-linejoin:miter;stroke-miterlimit:4;stroke-opacity:1;stroke-dasharray:none"
         inkscape:connector-curvature="0" />
      <path
         sodipodi:nodetypes="cccccccssc"
         id="path6732"
         d="m 1218.2784,236.26651 -17.9242,17.63972 -5.4057,0.56902 -11.665,-5.97474 -17.0707,-2.84512 -23.3299,-2.5606 -3.4142,-17.63972 c 0,0 30.8413,3.49502 44.0993,4.55219 6.0505,0.48246 14.2489,-0.0547 20.2003,1.13804 4.5262,0.90708 14.5101,5.12121 14.5101,5.12121 z"
         style="fill:#000000;fill-opacity:1;fill-rule:evenodd;stroke:#ffffff;stroke-width:1px;stroke-linecap:butt;stroke-linejoin:miter;stroke-opacity:1"
         inkscape:connector-curvature="0" />
      <path
         sodipodi:nodetypes="csssssssscssssssssssccccs"
         id="path6746"
         d="m 1161.5346,244.56911 c 4.5338,-1.33194 3.6617,-4.14862 8.3186,-4.94986 1.816,-0.31245 3.3364,-2.74525 5.0645,-3.27031 1.6377,-0.49758 2.6869,-0.889 4.4305,-0.79207 2.1576,0.11995 5.1594,1.73064 7.3116,1.53573 3.0649,-0.27757 6.8294,-1.66508 9.1147,-3.72618 1.3326,-1.20182 3.4011,-4.50849 4.5797,-5.86161 1.9436,-2.23139 3.654,-4.0948 6.307,-5.40572 3.001,-1.48287 9.1471,-2.22102 12.4707,-2.61876 2.5552,-0.30578 8.5354,0.85354 8.5354,0.85354 0,0 -4.4732,-3.96773 -6.8283,-4.8367 -2.4192,-0.89262 -5.6358,-1.33228 -8.623,-1.35995 -1.3814,-0.0128 -2.7138,0.0625 -3.8955,0.2219 -2.1682,0.29241 -4.8479,1.6308 -6.8283,2.56061 -1.8687,0.87737 -4.563,3.22427 -6.1907,4.49403 -2.3323,1.81936 -4.0649,4.52938 -6.6123,6.03289 -1.1411,0.67351 -3.7381,0.56198 -5.063,0.54154 -1.782,-0.0275 -4.0463,-1.01874 -5.6902,-1.70707 -2.7835,-1.1655 -5.9326,-3.95896 -8.8198,-4.8367 -3.6894,-1.1216 -8.1555,-0.37066 -12.0078,-0.54153 -3.0697,-0.13616 -10.2424,0 -10.2424,0 l -11.0959,5.12121 1.138,9.9579 13.0875,6.54377 c 0,0 10.3466,2.39364 11.539,2.04334 z"
         style="fill:#000000;fill-opacity:1;fill-rule:evenodd;stroke:#ffffff;stroke-width:1.5;stroke-linecap:butt;stroke-linejoin:miter;stroke-miterlimit:4;stroke-opacity:1;stroke-dasharray:none"
         inkscape:connector-curvature="0" />
      <path
         sodipodi:nodetypes="csscssccc"
         id="path6748"
         d="m 1150.5647,218.91131 c 0,0 1.3738,3.4664 1.7618,5.8991 0.3773,2.36609 2.6805,3.75366 2.6912,6.14962 0.01,1.36831 -0.4698,7.01355 -0.4698,7.01355 0,0 3.0427,-2.65499 3.9831,-5.40572 0.6356,-1.85934 0.4399,-5.15396 0.2845,-7.11279 -0.1767,-2.22692 -0.8535,-7.3973 -0.8535,-7.3973 l -4.2677,-0.85353 -3.1296,1.70707 z"
         style="fill:#000000;fill-rule:evenodd;stroke:#ffffff;stroke-width:1px;stroke-linecap:butt;stroke-linejoin:miter;stroke-opacity:1"
         inkscape:connector-curvature="0" />
      <path
         sodipodi:nodetypes="cscsscc"
         id="path6750"
         d="m 1165.6438,243.94832 c 0,0 0.3351,-4.57943 0.2845,-6.54376 -0.046,-1.79994 -0.569,-5.97474 -0.569,-5.97474 0,0 2.4003,2.85741 3.1296,4.26767 0.7439,1.43851 1.5143,3.51325 1.7071,5.12121 0.1223,1.02048 -0.2845,3.41413 -0.2845,3.41413 l -4.2677,-0.28451 z"
         style="fill:#000000;fill-rule:evenodd;stroke:#ffffff;stroke-width:1px;stroke-linecap:butt;stroke-linejoin:miter;stroke-opacity:1"
         inkscape:connector-curvature="0" />
      <path
         sodipodi:nodetypes="cccscsc"
         id="path6756"
         d="m 1195.5175,254.75976 4.0957,-0.3849 1.879,-2.1757 c 0,0 -3.3081,-6.40193 -5.1212,-8.53535 -1.2123,-1.42638 -3.9831,-3.41414 -3.9831,-3.41414 0,0 -0.4672,3.19612 -0.2845,4.55219 0.4217,3.12979 3.4141,9.9579 3.4141,9.9579 z"
         style="fill:#000000;fill-rule:evenodd;stroke:#ffffff;stroke-width:1px;stroke-linecap:butt;stroke-linejoin:miter;stroke-opacity:1"
         inkscape:connector-curvature="0" />
      <path
         sodipodi:nodetypes="cccscsc"
         id="path6758"
         d="m 1213.795,239.82964 3.9639,-1.10021 -1.0941,-1.05005 c 0,0 -1.8233,-7.14181 -3.9838,-8.92257 -1.4446,-1.19058 -4.5221,-2.65928 -4.5221,-2.65928 0,0 0.103,3.22844 0.5216,4.53114 0.9663,3.0066 5.1145,9.20097 5.1145,9.20097 z"
         style="fill:#000000;fill-rule:evenodd;stroke:#ffffff;stroke-width:1px;stroke-linecap:butt;stroke-linejoin:miter;stroke-opacity:1"
         inkscape:connector-curvature="0" />
      <path
         sodipodi:nodetypes="csssssssssssssssssssssssssssscsssssssssssssssssssccc"
         id="path6726"
         d="m 1165.2746,188.70567 c 0,0 -17.7556,-9.67762 -27.9905,-11.15015 -2.5701,-0.36977 -6.1422,-1.05969 -8.6471,-0.37596 -2.5955,0.70844 -5.6059,2.99615 -7.5193,4.8875 -0.5784,0.57176 -0.7867,1.87199 -1.5038,2.25577 -1.3922,0.7451 -3.7678,-0.50634 -5.2635,0 -2.2863,0.774 -4.9087,2.98276 -6.3913,4.88751 -1.0552,1.35567 -2.0865,3.55388 -2.2558,5.26346 -0.2158,2.17929 -1.121,5.28914 0.8768,6.18628 0.8295,0.37253 2.3633,-0.70492 3.2588,-0.54686 1.8915,0.33385 3.5353,3.06299 4.1356,4.88751 0.5299,1.61065 -0.6504,3.96619 -0.376,5.63942 0.9085,5.53942 6.6211,11.70515 7.1433,17.29424 0.2572,2.75306 -1.919,6.25831 -1.8798,9.02308 0.034,2.43452 0.8032,5.71138 1.8798,7.89519 1.0282,2.08553 2.9894,4.67242 4.8875,6.01539 2.7375,1.93685 7.2227,3.18728 10.5269,3.75962 3.8897,0.67374 9.2431,0.50231 13.1586,0 5.3183,-0.68228 11.9957,-3.68969 17.2943,-4.51154 2.1206,-0.32892 4.9981,-0.43406 7.1433,-0.37596 3.175,0.086 7.5227,0.0971 10.5269,1.12788 2.6349,0.90405 5.2595,3.9859 7.8952,4.8875 2.0388,0.69743 5.0468,1.24996 7.1433,0.75193 1.8263,-0.43386 3.9567,-2.03595 5.2634,-3.38366 0.9156,-0.94435 1.4316,-2.73453 2.2558,-3.75962 1.7498,-2.1763 4.5141,-4.74172 6.7673,-6.39134 0.937,-0.68598 2.4697,-1.16348 3.3837,-1.87981 1.696,-1.32924 4.8641,-3.10877 4.8875,-5.26347 0.015,-1.35807 -1.8368,-2.69541 -3.0077,-3.38365 -0.8965,-0.52695 -3.3837,-0.75193 -3.3837,-0.75193 0,0 0.7571,2.69208 0.376,3.75962 -0.429,1.20179 -1.9348,2.31686 -3.0077,3.0077 -0.8102,0.52171 -2.2039,0.59633 -3.0077,1.12788 -2.7283,1.8042 -5.7521,5.14278 -7.5193,7.8952 -0.6563,1.02221 -0.6612,2.8846 -1.5038,3.75961 -0.7705,0.80017 -2.2807,1.37177 -3.3837,1.50385 -1.252,0.14993 -2.9579,-0.30092 -4.1355,-0.75192 -4.8233,-1.84726 -9.7664,-7.37845 -14.6625,-9.02308 -3.33,-1.11855 -8.9973,-1.3015 -12.5084,-1.4124 -3.3838,-0.10688 -6.5195,-0.47439 -9.8563,-1.0466 -2.7456,-0.47083 -7.1236,-0.21818 -9.0231,-2.25576 -1.2892,-1.38294 -1.7113,-4.13224 -1.8798,-6.01539 -0.1621,-1.81142 0.2126,-3.61059 1.3108,-5.06025 1.4041,-1.85343 4.1714,-2.69216 6.3914,-3.38365 2.6399,-0.82229 6.3758,-1.08133 9.023,-1.87981 3.4891,-1.0524 8.027,-2.86649 11.2789,-4.51154 4.3846,-2.21808 10.4098,-5.19902 13.9106,-8.64712 1.3374,-1.31725 2.5502,-3.58146 3.3836,-5.26346 1.1723,-2.3658 2.8707,-5.6344 3.0077,-8.27116 0.096,-1.85765 -1.5038,-6.01538 -1.5038,-6.01538 l -17.6702,-4.13558 -9.2297,3.63091 z"
         style="fill:#000000;fill-opacity:1;fill-rule:evenodd;stroke:#ffffff;stroke-width:1.5;stroke-linecap:butt;stroke-linejoin:miter;stroke-miterlimit:4;stroke-opacity:1;stroke-dasharray:none"
         inkscape:connector-curvature="0" />
      <path
         sodipodi:nodetypes="cssccscscsccscsscscscscscscscssss"
         id="path6716"
         d="m 1187.7772,167.11707 c 0.1917,-1.29939 0.6167,-2.8913 0.8587,-4.29317 0.418,-2.42295 1.8768,-5.53905 3.4345,-7.4415 2.6274,-3.20915 9.8743,-8.58634 9.8743,-8.58634 l -3.1484,11.16224 c 0,0 3.0199,-3.08488 4.6102,-3.98767 2.0365,-1.15611 7.5538,-2.59519 7.5538,-2.59519 0,0 -2.6623,3.50734 -3.1827,5.28291 -0.3272,1.11625 -0.1087,3.87586 -0.1087,3.87586 0,0 2.4855,-0.8842 3.6003,-1.00588 1.5747,-0.17187 4.6998,-0.28207 4.6998,-0.28207 l -5.1518,6.15354 c 0,0 3.2739,-0.50252 4.682,-0.42311 2.3317,0.13151 7.6251,1.56795 7.6251,1.56795 0,0 -10.193,4.92332 -12.164,9.01566 -1.5845,3.28979 -1.2553,8.92434 0.4293,12.16399 1.1171,2.14829 6.4398,4.86559 6.4398,4.86559 0,0 -4.2634,1.88506 -6.0104,2.14658 -2.1919,0.32812 -6.5829,-0.71552 -6.5829,-0.71552 0,0 -0.395,2.74226 -0.2089,3.89866 0.196,1.21769 1.4968,3.82904 1.4968,3.82904 0,0 -5.6056,-1.64218 -7.8708,-2.5759 -0.7156,-0.29495 -2.1466,-1.43106 -2.1466,-1.43106 0,0 -1.1458,2.75232 -1.2879,4.00696 -0.1697,1.49854 0.4293,5.0087 0.4293,5.0087 0,0 -4.9268,-2.24556 -6.0104,-4.15006 -0.9363,-1.64566 -0.4294,-6.29665 -0.4294,-6.29665 0,0 -1.7639,3.77179 -3.0052,5.0087 -1.4864,1.48118 -6.0104,3.57764 -6.0104,3.57764 0,0 1.7286,-4.84169 2.0035,-7.01218 0.4102,-3.23806 -1.0134,-7.69414 -0.2862,-10.87603 0.7102,-3.10724 3.9674,-6.38677 4.8655,-9.44498 0.8871,-3.02082 0.5422,-7.33205 1.0018,-10.44671 z"
         style="fill:#000000;fill-rule:evenodd;stroke:#ffffff;stroke-width:1.5;stroke-linecap:butt;stroke-linejoin:miter;stroke-miterlimit:4;stroke-opacity:1;stroke-dasharray:none"
         inkscape:connector-curvature="0" />
      <g
         style="fill:#000000"
         id="g6706">
        <path
           style="fill:#000000;fill-opacity:1;fill-rule:evenodd;stroke:#ffffff;stroke-width:1.5;stroke-linecap:butt;stroke-linejoin:miter;stroke-miterlimit:4;stroke-opacity:1;stroke-dasharray:none"
           d="m 1184.6897,183.96551 c 0,0 0.8536,3.29113 1.5271,4.6381 0.6314,1.26278 1.3718,1.74833 2.7468,2.06893 1.4922,0.34793 3.4502,0.58493 4.8926,0.068 2.0224,-0.72475 3.7312,-1.98364 4.8246,-3.83294 0.8144,-1.37734 1.1371,-3.03828 0.814,-4.31554 -0.2266,-0.89593 -1.9417,-2.39149 -1.9417,-2.39149 0,0 3.052,-1.54616 3.8242,-2.8829 0.7125,-1.23334 1.0548,-3.3474 0.6275,-4.70613 -0.4597,-1.46163 -1.7942,-2.89342 -3.1967,-3.51038 -0.458,-0.20147 -2.276,0.1472 -2.9655,0.23873 -0.3482,0.0462 0.123,-0.15644 0.123,-0.15644 0,0 0.7767,-2.00128 0.5485,-3.04991 -0.1563,-0.71831 -0.5595,-1.79967 -1.2252,-2.11148 -1.449,-0.67868 -3.8846,-0.67869 -5.3336,0 -1.9971,0.93542 -3.4461,2.86082 -4.3243,4.8838 -0.6043,1.39217 -0.6275,5.01987 -0.6275,5.01987 0,0 -3.5975,0.0983 -5.0199,0.62748 -0.9542,0.355 -2.0267,1.249 -2.8237,1.88246 -1.7202,1.36717 -3.8374,3.41063 -5.3336,5.01987 -1.3212,1.42107 -2.7285,3.62619 -4.0786,5.01987 -1.2999,1.3419 -3.2107,2.95886 -4.7062,4.07865 -1.254,0.93892 -20.0114,-1.77015 -20.0114,-1.77015 0,0 0.038,3.10035 0.3138,4.39239 0.2297,1.07747 0.9643,2.38853 1.255,3.45116 0.4043,1.47789 15.81,8.27771 16.5602,9.61369 0.62,1.10412 1.9552,2.37001 3.1374,2.82368 0.7909,0.30349 2.1115,0.45861 2.8237,0 0.9562,-0.61571 0.5611,-2.92381 1.5687,-3.45116 0.9323,-0.48795 2.4041,0.73286 3.4511,0.62748 0.5043,-0.0508 1.2104,-0.26905 1.5688,-0.62748 0.7168,-0.71681 0.3853,-2.61638 1.2549,-3.13742 0.7311,-0.43808 1.991,0.49548 2.8237,0.31374 1.0724,-0.23405 2.4257,-1.04679 3.1374,-1.88245 0.6573,-0.77178 1.0341,-2.14804 1.255,-3.13742 0.3492,-1.56434 0.064,-3.75028 0.3137,-5.33361 0.4084,-2.59336 2.1962,-8.47104 2.1962,-8.47104 z"
           id="path6643"
           sodipodi:nodetypes="cssssscsssscsssscssssscsssssssssssssc"
           inkscape:connector-curvature="0" />
      </g>
      <path
         sodipodi:nodetypes="csssssscsc"
         id="path6728"
         d="m 1153.9788,179.93323 c 0,0 6.6847,0.31858 8.8199,1.99158 1.2019,0.94169 2.6424,1.9008 2.8451,3.41414 0.1155,0.86273 -0.1401,2.08766 -0.569,2.84511 -0.6252,1.10418 -2.0602,2.16235 -3.1297,2.84512 -1.4832,0.94682 -3.6571,2.07956 -5.4057,2.27609 -1.4642,0.16457 -3.4328,-0.40613 -4.8367,-0.85354 -1.7097,-0.54489 -5.4057,-2.5606 -5.4057,-2.5606 0,0 4.1575,-2.62112 5.4057,-4.26767 1.3406,-1.76848 2.2761,-5.69023 2.2761,-5.69023 z"
         style="fill:#000000;fill-opacity:1;fill-rule:evenodd;stroke:#ffffff;stroke-width:1px;stroke-linecap:butt;stroke-linejoin:miter;stroke-opacity:1"
         inkscape:connector-curvature="0" />
      <path
         sodipodi:nodetypes="csssssscssc"
         id="path6730"
         d="m 1144.5899,195.01234 c 0,0 7.1016,0.69319 9.9579,1.70707 1.4766,0.52414 3.6317,1.29258 4.5522,2.5606 1.534,2.11324 1.679,4.84261 1.1381,7.3973 -0.3679,1.73758 -1.9885,3.77752 -3.4142,4.83669 -1.5167,1.12671 -4.0925,1.82678 -5.9747,1.99158 -2.3208,0.20321 -5.1252,0.51475 -7.3973,1e-5 -1.1323,-0.25651 -3.6987,-2.2761 -3.6987,-2.2761 0,0 4.2574,-2.60097 5.1212,-4.55218 0.9148,-2.06643 0.9334,-5.13885 0.8536,-7.3973 -0.047,-1.32422 -1.1381,-4.26767 -1.1381,-4.26767 z"
         style="fill:#000000;fill-opacity:1;fill-rule:evenodd;stroke:#ffffff;stroke-width:1px;stroke-linecap:butt;stroke-linejoin:miter;stroke-opacity:1"
         inkscape:connector-curvature="0" />
      <path
         transform="translate(0.0998565,0.25917)"
         d="m 1154.9375,181.28125 c -2.3523,0 -4.3126,1.88019 -4.3125,4.21875 0,2.33845 1.9774,4.1875 4.3125,4.1875 2.3351,0 4.3126,-1.84894 4.3125,-4.1875 0,-2.33845 -1.9602,-4.21875 -4.3125,-4.21875 z"
         id="path7288"
         style="fill:#000000;fill-opacity:1;fill-rule:evenodd;stroke:#ffffff;stroke-width:2;stroke-linecap:butt;stroke-linejoin:miter;stroke-miterlimit:4;stroke-opacity:1;stroke-dasharray:none;stroke-dashoffset:0;marker:none;visibility:visible;display:inline;overflow:visible;enable-background:accumulate"
         inkscape:original="M 1154.9375 182.625 C 1153.303 182.625 1151.9687 183.926 1151.9688 185.5 C 1151.9688 187.074 1153.303 188.34375 1154.9375 188.34375 C 1156.572 188.34375 1157.9063 187.074 1157.9062 185.5 C 1157.9062 183.926 1156.572 182.625 1154.9375 182.625 z "
         inkscape:radius="1.3527765"
         sodipodi:type="inkscape:offset" />
      <path
         transform="matrix(1.1054314,0,0,1.147948,-126.64118,-8.4903401)"
         d="m 1154.9375,181.34375 c -2.3119,0 -4.2501,1.86073 -4.25,4.15625 0,2.29542 1.9543,4.125 4.25,4.125 2.2957,0 4.2501,-1.82948 4.25,-4.125 0,-2.29542 -1.9381,-4.15625 -4.25,-4.15625 z"
         id="path7286"
         style="fill:#000000;fill-opacity:1;fill-rule:evenodd;stroke:#ffffff;stroke-width:2;stroke-linecap:butt;stroke-linejoin:miter;stroke-miterlimit:4;stroke-opacity:1;stroke-dasharray:none;stroke-dashoffset:0;marker:none;visibility:visible;display:inline;overflow:visible;enable-background:accumulate"
         inkscape:original="M 1154.9375 182.625 C 1153.303 182.625 1151.9687 183.926 1151.9688 185.5 C 1151.9688 187.074 1153.303 188.34375 1154.9375 188.34375 C 1156.572 188.34375 1157.9063 187.074 1157.9062 185.5 C 1157.9062 183.926 1156.572 182.625 1154.9375 182.625 z "
         inkscape:radius="1.2766325"
         sodipodi:type="inkscape:offset" />
      <path
         sodipodi:nodetypes="csssssscsssscssscs"
         id="path6778"
         d="m 1143.6484,191.64052 c 1.6546,-0.3135 3.5042,-1.8497 4.7673,-2.96349 1.9787,-1.74485 3.4743,-3.43081 4.6386,-5.79813 0.6662,-1.35453 1.1763,-3.87013 0.6442,-5.28273 -0.6352,-1.68622 -1.5146,-2.90057 -3.2212,-3.47888 -2.0514,-0.69517 -5.3286,-0.40649 -7.3442,0.38655 -1.2209,0.48035 -2.1362,2.19402 -3.0924,3.09233 -1.2775,1.20006 -4.252,3.22118 -4.252,3.22118 0,0 1.1199,0.31237 2.1759,0.26411 0.8574,-0.0392 1.6289,-0.49172 2.0761,-0.13526 0.7185,0.57268 1.0258,2.08011 0.7731,2.96348 -0.2782,0.97267 -1.66,1.68487 -2.4481,2.31926 -0.9103,0.73279 -1.1596,1.41732 -1.1596,1.41732 0,0 1.2875,-0.20366 2.701,-0.31219 0.7644,-0.0587 1.6568,-0.45421 2.1951,0.0545 0.3103,0.29326 0.1078,1.0619 -0.1288,1.41732 -0.824,1.23791 -2.1904,2.1904 -2.1904,2.1904 0,0 1.9733,1.00275 3.8654,0.64424 z"
         style="fill:#000000;fill-rule:evenodd;stroke:#ffffff;stroke-width:1.5;stroke-linecap:butt;stroke-linejoin:miter;stroke-miterlimit:4;stroke-opacity:1;stroke-dasharray:none"
         inkscape:connector-curvature="0" />
      <path
         sodipodi:nodetypes="cssssssscsssscssscssscsssc"
         id="path6780"
         d="m 1128.9553,194.97169 c 0,0 2.9401,-1.88227 4.2067,-2.33706 1.0713,-0.38464 2.3519,-6.7e-4 3.5835,-0.46741 1.0813,-0.40977 2.5858,-1.01622 3.7393,-0.93482 1.6104,0.11365 3.8179,0.91074 4.9857,2.02545 0.9683,0.92416 1.7744,2.71583 1.8697,4.05091 0.1981,2.77316 -1.1089,6.51832 -1.8696,9.19243 -0.6361,2.23569 -1.5222,4.27596 -2.4929,6.38796 -0.5901,1.28397 -2.6487,3.89509 -2.6487,3.89509 0,0 0.1402,-2.98699 -0.9348,-3.73928 -0.8364,-0.58531 -1.7689,0.57292 -2.6487,1.09062 -0.5697,0.33522 -1.2464,1.40224 -2.0254,1.40224 -0.779,0 -2.5677,0.27302 -3.6768,0.0806 -1.1129,-0.19304 -3.0228,-1.95029 -3.0228,-1.95029 0,0 3.0141,0.0648 4.0256,-0.61529 0.8673,-0.58319 2.1787,-1.95334 1.5834,-2.8124 -0.5086,-0.73398 -2.0788,0.45465 -2.9603,0.31161 -0.5575,-0.0905 -1.7139,-0.77902 -1.7139,-0.77902 0,0 3.9943,-2.63433 5.609,-3.8951 0.3916,-0.30577 1.2989,-0.59655 1.2464,-1.09063 -0.1017,-0.95708 -1.8609,-1.36851 -2.8045,-1.55804 -0.8299,-0.16669 -2.8044,0.31161 -2.8044,0.31161 0,0 1.1213,-2.74232 2.0254,-3.58349 0.7194,-0.66938 2.7783,-0.36775 2.9603,-1.40223 0.2355,-1.33816 -2.0058,-2.21381 -3.1161,-2.80448 -0.8507,-0.45256 -3.1161,-0.77902 -3.1161,-0.77902 z"
         style="fill:#000000;fill-rule:evenodd;stroke:#ffffff;stroke-width:1.5;stroke-linecap:butt;stroke-linejoin:miter;stroke-miterlimit:4;stroke-opacity:1;stroke-dasharray:none"
         inkscape:connector-curvature="0" />
      <path
         sodipodi:nodetypes="cssssscssssssc"
         id="path6784"
         d="m 1096.0299,224.35767 c 2.4692,0.27435 3.0578,0.96983 4.3896,0.82305 1.8691,-0.206 4.0433,-1.70469 5.7614,-2.46915 2.1533,-0.95812 4.8311,-2.78661 7.1331,-3.29221 1.6078,-0.35313 3.8689,-0.30226 5.487,0 2.6894,0.50237 5.8154,2.78984 8.5048,3.29221 1.1327,0.21159 3.841,0 3.841,0 0,0 -1.2149,0.97644 -3.6366,2.0041 -1.5995,0.67879 -4.9858,2.24634 -6.0668,2.70322 -1.5629,0.66055 -4.2506,1.66479 -5.8625,2.19481 -2.3325,0.76698 -4.2035,0.94608 -6.6565,1.05403 -1.6629,0.0732 -3.9255,-0.24644 -5.487,-0.82305 -1.4568,-0.53795 -3.1517,-1.80591 -4.3896,-2.7435 -0.9754,-0.73873 -3.0179,-2.74351 -3.0179,-2.74351 z"
         style="fill:#000000;fill-rule:evenodd;stroke:#ffffff;stroke-width:1.5;stroke-linecap:butt;stroke-linejoin:miter;stroke-miterlimit:4;stroke-opacity:1;stroke-dasharray:none"
         inkscape:connector-curvature="0" />
    </g>
    <path
       sodipodi:nodetypes="cscsscc"
       id="path2492"
       d="m 395.45037,300.21677 c 0,0 0.84902,-1.36514 1.48539,-2.44907 0.58325,-0.99314 1.71068,-3.4369 1.71068,-3.4369 0,0 0.33757,2.36309 0.2569,3.37546 -0.0823,1.03264 -0.36527,2.41974 -0.80412,3.35811 -0.27855,0.59551 -0.64556,0.86721 -0.64556,0.86721 l -2.00331,-1.71482 z"
       style="fill:#000000;fill-rule:evenodd;stroke:#ffffff;stroke-width:0.63966221px;stroke-linecap:butt;stroke-linejoin:miter;stroke-opacity:1"
       inkscape:connector-curvature="0" />
  </g>
</svg>
